<svg width="52" height="52" viewBox="0 0 52 52" fill="none" xmlns="http://www.w3.org/2000/svg">
<path d="M34.1398 14.8571H17.8602C16.2017 14.8571 14.8572 16.2016 14.8572 17.8602V34.1397C14.8572 35.7982 16.2017 37.1427 17.8602 37.1427H25.8892L25.9029 29.1791H23.8339C23.5651 29.1791 23.3468 28.9616 23.3458 28.6928L23.3359 26.1257C23.3348 25.8554 23.5537 25.6357 23.8241 25.6357H25.8893V23.1553C25.8893 20.2768 27.6473 18.7095 30.2151 18.7095H32.3222C32.5918 18.7095 32.8104 18.928 32.8104 19.1977V21.3622C32.8104 21.6317 32.5919 21.8502 32.3224 21.8504L31.0294 21.851C29.6329 21.851 29.3625 22.5146 29.3625 23.4884V25.6357H32.431C32.7234 25.6357 32.9502 25.891 32.9158 26.1814L32.6115 28.7484C32.5824 28.9941 32.3741 29.1792 32.1267 29.1792H29.3762L29.3625 37.1428H34.1399C35.7984 37.1428 37.1429 35.7983 37.1429 34.1398V17.8602C37.1428 16.2016 35.7983 14.8571 34.1398 14.8571Z" fill="black"/>
</svg>
