<svg width="52" height="52" viewBox="0 0 52 52" fill="none" xmlns="http://www.w3.org/2000/svg">
<g clip-path="url(#clip0)">
<path d="M31.0043 13.619H20.9958C16.9283 13.619 13.6191 16.9282 13.6191 20.9957V31.0042C13.6191 35.0717 16.9283 38.3809 20.9958 38.3809H31.0043C35.0719 38.3809 38.381 35.0717 38.381 31.0042V20.9957C38.381 16.9282 35.0718 13.619 31.0043 13.619ZM35.89 31.0042C35.89 33.7025 33.7026 35.8899 31.0043 35.8899H20.9958C18.2976 35.8899 16.1102 33.7025 16.1102 31.0042V20.9957C16.1102 18.2974 18.2976 16.1101 20.9958 16.1101H31.0043C33.7026 16.1101 35.89 18.2974 35.89 20.9957V31.0042Z" fill="black"/>
<path d="M26 19.5956C22.4687 19.5956 19.5957 22.4686 19.5957 25.9999C19.5957 29.5312 22.4687 32.4042 26 32.4042C29.5314 32.4042 32.4043 29.5312 32.4043 25.9999C32.4043 22.4686 29.5314 19.5956 26 19.5956ZM26 29.9132C23.8388 29.9132 22.0867 28.1612 22.0867 26C22.0867 23.8387 23.8388 22.0867 26 22.0867C28.1613 22.0867 29.9133 23.8387 29.9133 26C29.9133 28.1612 28.1612 29.9132 26 29.9132Z" fill="black"/>
<path d="M32.4168 21.1783C33.2643 21.1783 33.9514 20.4913 33.9514 19.6437C33.9514 18.7962 33.2643 18.1091 32.4168 18.1091C31.5693 18.1091 30.8822 18.7962 30.8822 19.6437C30.8822 20.4913 31.5693 21.1783 32.4168 21.1783Z" fill="black"/>
</g>
<defs>
<clipPath id="clip0">
<rect width="24.7619" height="24.7619" fill="white" transform="translate(13.6191 13.619)"/>
</clipPath>
</defs>
</svg>
