<svg width="52" height="52" viewBox="0 0 52 52" fill="none" xmlns="http://www.w3.org/2000/svg">
<path d="M25.9786 13.619C19.1596 13.619 13.619 19.1596 13.619 25.9787C13.619 31.0504 16.645 35.3976 21.0348 37.3154C20.9922 36.4631 21.0348 35.3976 21.2479 34.4599C21.5036 33.4371 22.8248 27.726 22.8248 27.726C22.8248 27.726 22.4412 26.9163 22.4412 25.7655C22.4412 23.9329 23.5067 22.5691 24.8279 22.5691C25.936 22.5691 26.4901 23.4215 26.4901 24.4443C26.4901 25.5524 25.7655 27.2572 25.382 28.8341C25.0836 30.1553 26.0212 31.2208 27.3425 31.2208C29.6865 31.2208 31.2634 28.1948 31.2634 24.6574C31.2634 21.9297 29.4308 19.9266 26.1065 19.9266C22.356 19.9266 20.0119 22.7395 20.0119 25.8507C20.0119 26.9162 20.3103 27.6834 20.8217 28.28C21.0348 28.5357 21.0774 28.6636 20.9922 28.9619C20.9495 29.175 20.7791 29.7291 20.7364 29.9421C20.6512 30.2405 20.3955 30.3684 20.0972 30.2405C18.3498 29.5159 17.5826 27.6407 17.5826 25.5097C17.5826 22.0149 20.5233 17.7956 26.4048 17.7956C31.1356 17.7956 34.2468 21.2052 34.2468 24.8704C34.2468 29.729 31.5618 33.3517 27.5982 33.3517C26.277 33.3517 24.9984 32.6272 24.5722 31.8174C24.5722 31.8174 23.8477 34.6729 23.7198 35.227C23.4641 36.1646 22.9527 37.1449 22.4839 37.8694C23.592 38.2104 24.7853 38.3808 25.9786 38.3808C32.7977 38.3808 38.3383 32.8403 38.3383 26.0212C38.3383 19.2021 32.7978 13.619 25.9786 13.619Z" fill="black"/>
</svg>
