<svg width="52" height="52" viewBox="0 0 52 52" fill="none" xmlns="http://www.w3.org/2000/svg">
<path d="M38.3809 18.4404C37.4601 18.8381 36.4789 19.1017 35.4559 19.2297C36.5083 18.611 37.3115 17.6388 37.6891 16.467C36.7079 17.043 35.6246 17.4499 34.4701 17.6769C33.5384 16.7002 32.2106 16.0952 30.762 16.0952C27.9515 16.0952 25.6889 18.3413 25.6889 21.0948C25.6889 21.491 25.7229 21.872 25.8065 22.2346C21.5862 22.032 17.8518 20.0404 15.3431 17.0065C14.9051 17.7546 14.6482 18.611 14.6482 19.5329C14.6482 21.264 15.5535 22.7985 16.9031 23.6868C16.0875 23.6716 15.2874 23.4385 14.6095 23.0712C14.6095 23.0865 14.6095 23.1063 14.6095 23.1261C14.6095 25.555 16.3691 27.5725 18.6766 28.0373C18.2634 28.1485 17.8131 28.2019 17.3457 28.2019C17.0207 28.2019 16.6926 28.1836 16.3846 28.1165C17.0424 30.096 18.9088 31.5512 21.1281 31.5985C19.4009 32.9287 17.2079 33.7303 14.8339 33.7303C14.4176 33.7303 14.0183 33.712 13.619 33.6617C15.8677 35.0895 18.5327 35.9047 21.4066 35.9047C30.7481 35.9047 35.8552 28.2857 35.8552 21.6815C35.8552 21.4605 35.8475 21.2472 35.8366 21.0354C36.8441 20.3314 37.6907 19.4522 38.3809 18.4404Z" fill="black"/>
</svg>
