<svg width="24" height="24" viewBox="0 0 24 24" fill="none" xmlns="http://www.w3.org/2000/svg">
<g clip-path="url(#clip0)">
<path d="M18.9565 7.11709H17.7919C17.9455 6.87396 18.0469 6.60106 18.0758 6.31243C18.1681 5.39003 17.6823 4.56315 16.8553 4.19656C16.0951 3.85959 15.2408 3.99734 14.6257 4.55528L13.1551 5.88809C12.8687 5.57484 12.4569 5.37796 12 5.37796C11.5423 5.37796 11.1299 5.57546 10.8434 5.88968L9.37091 4.55512C8.75475 3.99718 7.90081 3.85996 7.14097 4.19674C6.31416 4.56337 5.82828 5.39053 5.92091 6.3129C5.94987 6.60131 6.05119 6.87409 6.20478 7.11709H5.04347C4.46716 7.11709 4 7.58428 4 8.16056V9.72578C4 10.0139 4.23359 10.2475 4.52175 10.2475H19.4783C19.7664 10.2475 20 10.0139 20 9.72578V8.16056C20 7.58428 19.5328 7.11709 18.9565 7.11709ZM10.4348 6.94318V7.11709H7.98031C7.33181 7.11709 6.82144 6.51253 6.98341 5.83734C7.05475 5.53999 7.26937 5.28653 7.54697 5.15821C7.92816 4.98203 8.35041 5.03859 8.67056 5.32837L10.4352 6.92781C10.4351 6.93296 10.4348 6.93803 10.4348 6.94318ZM17.0404 6.1739C17.0016 6.71618 16.5117 7.11715 15.9681 7.11715H13.5652V6.94324C13.5652 6.93709 13.5648 6.93099 13.5648 6.92484C13.9645 6.56246 14.8317 5.77646 15.3021 5.35012C15.5694 5.10784 15.9434 4.99474 16.2892 5.09787C16.7853 5.24587 17.0767 5.66781 17.0404 6.1739Z" fill="#0F0D22"/>
<path d="M5.04346 11.2904V18.9426C5.04346 19.5189 5.51061 19.9861 6.08693 19.9861H10.9565V11.2904H5.04346Z" fill="#0F0D22"/>
<path d="M13.0436 11.2904V19.9861H17.9131C18.4895 19.9861 18.9566 19.5189 18.9566 18.9426V11.2904H13.0436Z" fill="#0F0D22"/>
</g>
<defs>
<clipPath id="clip0">
<rect width="16" height="16" fill="white" transform="translate(4 4)"/>
</clipPath>
</defs>
</svg>
