<svg width="20" height="20" viewBox="0 0 16 17" fill="none" xmlns="http://www.w3.org/2000/svg">
<path d="M14.7729 2.12269C13.9978 1.28195 12.9341 0.818909 11.7777 0.818909C10.9133 0.818909 10.1217 1.09219 9.42482 1.63109C9.07317 1.90311 8.75454 2.23591 8.4736 2.62435C8.19278 2.23603 7.87404 1.90311 7.52227 1.63109C6.82548 1.09219 6.03386 0.818909 5.16947 0.818909C4.01307 0.818909 2.94932 1.28195 2.17415 2.12269C1.40824 2.95361 0.986328 4.08876 0.986328 5.3192C0.986328 6.58563 1.45828 7.74489 2.47154 8.96756C3.37797 10.0612 4.68072 11.1715 6.18935 12.4571C6.70449 12.8962 7.28841 13.3938 7.89471 13.9239C8.05489 14.0642 8.26042 14.1414 8.4736 14.1414C8.68667 14.1414 8.89232 14.0642 9.05226 13.9242C9.65857 13.3939 10.2428 12.896 10.7582 12.4568C12.2666 11.1714 13.5693 10.0612 14.4758 8.96744C15.489 7.74489 15.9609 6.58563 15.9609 5.31909C15.9609 4.08876 15.539 2.95361 14.7729 2.12269Z" fill="#333333"/>
</svg>
