<svg width="28" height="28" viewBox="0 0 28 28" fill="none" xmlns="http://www.w3.org/2000/svg">
<path d="M13.9769 0.666668C6.63324 0.666668 0.666504 6.63341 0.666504 13.977C0.666504 19.4389 3.92526 24.1205 8.65272 26.1859C8.60681 25.2679 8.65272 24.1205 8.88222 23.1107C9.15763 22.0092 10.5804 15.8589 10.5804 15.8589C10.5804 15.8589 10.1673 14.9868 10.1673 13.7475C10.1673 11.7739 11.3148 10.3052 12.7376 10.3052C13.931 10.3052 14.5276 11.2231 14.5276 12.3247C14.5276 13.518 13.7474 15.3539 13.3343 17.0522C13.013 18.475 14.0227 19.6224 15.4456 19.6224C17.97 19.6224 19.6682 16.3637 19.6682 12.5541C19.6682 9.61665 17.6946 7.45948 14.1145 7.45948C10.0755 7.45948 7.55119 10.4887 7.55119 13.8393C7.55119 14.9867 7.87245 15.8129 8.42322 16.4554C8.65272 16.7308 8.69863 16.8685 8.60681 17.1898C8.5609 17.4193 8.37731 18.016 8.3314 18.2454C8.23958 18.5667 7.96422 18.7044 7.64295 18.5667C5.76115 17.7864 4.93497 15.7669 4.93497 13.472C4.93497 9.70842 8.1019 5.16454 14.4358 5.16454C19.5305 5.16454 22.881 8.83638 22.881 12.7836C22.881 18.0159 19.9895 21.9173 15.721 21.9173C14.2981 21.9173 12.9212 21.137 12.4622 20.265C12.4622 20.265 11.682 23.3401 11.5443 23.9368C11.2689 24.9466 10.7181 26.0022 10.2133 26.7825C11.4066 27.1496 12.6917 27.3332 13.9769 27.3332C21.3205 27.3332 27.2872 21.3665 27.2872 14.0229C27.2872 6.67922 21.3205 0.666668 13.9769 0.666668Z" fill="#CB1F24"/>
</svg>
