<svg width="18" height="18" viewBox="0 1 16 15" fill="none" xmlns="http://www.w3.org/2000/svg">
<path d="M15.7896 6.65532L10.3821 1.1759C10.2057 0.997382 9.93529 0.941345 9.69994 1.0338C9.46368 1.12714 9.30891 1.3504 9.30891 1.59877V4.23711H9.10098C4.62859 4.23711 0.989746 7.7878 0.989746 12.1518V13.3695C0.989746 13.6519 1.19356 13.8873 1.47552 13.9516C1.52138 13.9629 1.56707 13.9678 1.61277 13.9678C1.84827 13.9678 2.07372 13.8329 2.18264 13.6211C3.35237 11.3376 5.70419 9.91943 8.3206 9.91943H9.30891V12.5576C9.30891 12.8061 9.46368 13.0294 9.69994 13.1219C9.93377 13.2152 10.2057 13.1584 10.3821 12.9798L15.7896 7.50033C16.0225 7.26414 16.0225 6.8924 15.7896 6.65532Z" fill="#333333"/>
</svg>
