<svg width="28" height="28" viewBox="0 0 26 21" fill="none" xmlns="http://www.w3.org/2000/svg">
<path d="M25.9998 3.03436C25.0578 3.4359 24.0539 3.70205 23.0073 3.83128C24.084 3.20667 24.9058 2.22513 25.2921 1.04205C24.2883 1.62359 23.1799 2.03436 21.9988 2.26359C21.0456 1.27744 19.6871 0.666668 18.2051 0.666668C15.3298 0.666668 13.0149 2.93436 13.0149 5.71436C13.0149 6.11436 13.0498 6.49897 13.1353 6.86513C8.8175 6.66051 4.99692 4.64974 2.43034 1.58667C1.98225 2.34205 1.71942 3.20667 1.71942 4.13744C1.71942 5.88513 2.64567 7.43436 4.02634 8.33128C3.19192 8.3159 2.37334 8.08051 1.67984 7.70974C1.67984 7.72513 1.67984 7.74513 1.67984 7.76513C1.67984 10.2174 3.48009 12.2544 5.84084 12.7236C5.41809 12.8359 4.95734 12.8897 4.47917 12.8897C4.14667 12.8897 3.811 12.8713 3.49592 12.8036C4.16884 14.802 6.07834 16.2713 8.34884 16.319C6.58184 17.662 4.33825 18.4713 1.90942 18.4713C1.4835 18.4713 1.075 18.4528 0.666504 18.402C2.96709 19.8436 5.69359 20.6667 8.63384 20.6667C18.1908 20.6667 23.4158 12.9744 23.4158 6.30667C23.4158 6.08359 23.4079 5.86821 23.3968 5.65436C24.4276 4.94359 25.2937 4.0559 25.9998 3.03436Z" fill="#03A9F4"/>
</svg>
