<svg width="74" height="74" viewBox="0 0 74 74" fill="none" xmlns="http://www.w3.org/2000/svg">
<g filter="url(#filter0_dAPP)">
<circle cx="37" cy="37" r="27" fill="white"/>
</g>
<path d="M26.486 39.136L27.788 35.468H27.816L29.076 39.136H26.486ZM26.696 33.004L22.916 43H25.128L25.912 40.774H29.65L30.406 43H32.688L28.95 33.004H26.696Z" fill="#FF5E6D"/>
<path d="M35.888 37.708V34.712H37.596C37.848 34.712 38.0907 34.7307 38.324 34.768C38.5573 34.8054 38.7627 34.88 38.94 34.992C39.1173 35.0947 39.2573 35.244 39.36 35.44C39.472 35.636 39.528 35.8927 39.528 36.21C39.528 36.5274 39.472 36.784 39.36 36.98C39.2573 37.176 39.1173 37.33 38.94 37.442C38.7627 37.5447 38.5573 37.6147 38.324 37.652C38.0907 37.6894 37.848 37.708 37.596 37.708H35.888ZM33.69 33.004V43H35.888V39.416H38.198C38.8233 39.416 39.3553 39.3274 39.794 39.15C40.2327 38.9634 40.5873 38.7207 40.858 38.422C41.138 38.1234 41.3387 37.7827 41.46 37.4C41.5907 37.008 41.656 36.6114 41.656 36.21C41.656 35.7994 41.5907 35.4027 41.46 35.02C41.3387 34.6374 41.138 34.2967 40.858 33.998C40.5873 33.6994 40.2327 33.4614 39.794 33.284C39.3553 33.0974 38.8233 33.004 38.198 33.004H33.69Z" fill="#FF5E6D"/>
<path d="M45.3659 37.708V34.712H47.0739C47.3259 34.712 47.5686 34.7307 47.8019 34.768C48.0352 34.8054 48.2406 34.88 48.4179 34.992C48.5952 35.0947 48.7352 35.244 48.8379 35.44C48.9499 35.636 49.0059 35.8927 49.0059 36.21C49.0059 36.5274 48.9499 36.784 48.8379 36.98C48.7352 37.176 48.5952 37.33 48.4179 37.442C48.2406 37.5447 48.0352 37.6147 47.8019 37.652C47.5686 37.6894 47.3259 37.708 47.0739 37.708H45.3659ZM43.1679 33.004V43H45.3659V39.416H47.6759C48.3012 39.416 48.8332 39.3274 49.2719 39.15C49.7106 38.9634 50.0652 38.7207 50.3359 38.422C50.6159 38.1234 50.8166 37.7827 50.9379 37.4C51.0686 37.008 51.1339 36.6114 51.1339 36.21C51.1339 35.7994 51.0686 35.4027 50.9379 35.02C50.8166 34.6374 50.6159 34.2967 50.3359 33.998C50.0652 33.6994 49.7106 33.4614 49.2719 33.284C48.8332 33.0974 48.3012 33.004 47.6759 33.004H43.1679Z" fill="#FF5E6D"/>
<path fill-rule="evenodd" clip-rule="evenodd" d="M26.5578 32.804H29.0887L32.9763 43.2H30.2627L29.5067 40.974H26.0536L25.2696 43.2H22.6265L26.5578 32.804ZM25.912 40.774H29.65L30.406 43H32.688L28.95 33.004H26.696L22.916 43H25.128L25.912 40.774ZM26.486 39.136H29.076L27.816 35.468H27.788L26.486 39.136ZM26.7692 38.936H28.7958L27.7991 36.0345L26.7692 38.936ZM38.94 34.992C38.7626 34.88 38.5573 34.8053 38.324 34.768C38.0906 34.7307 37.848 34.712 37.596 34.712H35.888V37.708H37.596C37.848 37.708 38.0906 37.6893 38.324 37.652C38.5573 37.6147 38.7626 37.5447 38.94 37.442C39.1173 37.33 39.2573 37.176 39.36 36.98C39.472 36.784 39.528 36.5273 39.528 36.21C39.528 35.8927 39.472 35.636 39.36 35.44C39.2573 35.244 39.1173 35.0947 38.94 34.992ZM38.8364 37.2709C38.9808 37.1789 39.0962 37.0526 39.1828 36.8872L39.1862 36.8807C39.2753 36.7248 39.328 36.5059 39.328 36.21C39.328 35.9141 39.2754 35.6952 39.1863 35.5392L39.1827 35.5329C39.0961 35.3676 38.9817 35.2473 38.8398 35.1651L38.8331 35.1612C38.6814 35.0654 38.5023 34.9991 38.2924 34.9655C38.0701 34.9299 37.8381 34.912 37.596 34.912H36.088V37.508H37.596C37.8381 37.508 38.0701 37.4901 38.2924 37.4545C38.5036 37.4207 38.6839 37.3585 38.8364 37.2709ZM33.49 32.804H38.198C38.8415 32.804 39.4011 32.8998 39.8706 33.0993C40.331 33.2856 40.7114 33.5389 41.005 33.8624C41.3039 34.1816 41.5195 34.5471 41.6499 34.9574C41.7873 35.3606 41.856 35.7784 41.856 36.21C41.856 36.633 41.7871 37.0505 41.6502 37.4618C41.5197 37.8725 41.3041 38.2382 41.005 38.5576C40.7118 38.8807 40.3321 39.1384 39.8723 39.334L39.8689 39.3355C39.4001 39.525 38.8412 39.616 38.198 39.616H36.088V43.2H33.49V32.804ZM41.46 37.4C41.5906 37.008 41.656 36.6113 41.656 36.21C41.656 35.7993 41.5906 35.4027 41.46 35.02C41.3386 34.6373 41.138 34.2967 40.858 33.998C40.5873 33.6993 40.2326 33.4613 39.794 33.284C39.3553 33.0973 38.8233 33.004 38.198 33.004H33.69V43H35.888V39.416H38.198C38.8233 39.416 39.3553 39.3274 39.794 39.15C40.2326 38.9633 40.5873 38.7207 40.858 38.422C41.138 38.1233 41.3386 37.7827 41.46 37.4ZM48.4179 34.992C48.2405 34.88 48.0352 34.8053 47.8019 34.768C47.5685 34.7307 47.3259 34.712 47.0739 34.712H45.3659V37.708H47.0739C47.3259 37.708 47.5685 37.6893 47.8019 37.652C48.0352 37.6147 48.2405 37.5447 48.4179 37.442C48.5952 37.33 48.7352 37.176 48.8379 36.98C48.9499 36.784 49.0059 36.5273 49.0059 36.21C49.0059 35.8927 48.9499 35.636 48.8379 35.44C48.7352 35.244 48.5952 35.0947 48.4179 34.992ZM48.3143 37.2709C48.4587 37.1789 48.5741 37.0526 48.6607 36.8872L48.6641 36.8807C48.7532 36.7248 48.8059 36.5059 48.8059 36.21C48.8059 35.9141 48.7533 35.6952 48.6642 35.5392L48.6606 35.5329C48.574 35.3676 48.4596 35.2473 48.3176 35.1651L48.311 35.1612C48.1593 35.0654 47.9802 34.9991 47.7703 34.9655C47.548 34.9299 47.316 34.912 47.0739 34.912H45.5659V37.508H47.0739C47.316 37.508 47.548 37.4901 47.7703 37.4545C47.9815 37.4207 48.1618 37.3585 48.3143 37.2709ZM42.9679 32.804H47.6759C48.3194 32.804 48.879 32.8998 49.3485 33.0993C49.8089 33.2857 50.1893 33.5389 50.4829 33.8625C50.7818 34.1817 50.9974 34.5472 51.1278 34.9575C51.2652 35.3606 51.3339 35.7785 51.3339 36.21C51.3339 36.633 51.265 37.0505 51.1281 37.4618C50.9976 37.8725 50.782 38.2382 50.4829 38.5575C50.1898 38.8806 49.8101 39.1383 49.3502 39.334L49.3468 39.3355C48.878 39.525 48.3191 39.616 47.6759 39.616H45.5659V43.2H42.9679V32.804ZM50.3359 38.422C50.6159 38.1233 50.8165 37.7827 50.9379 37.4C51.0685 37.008 51.1339 36.6113 51.1339 36.21C51.1339 35.7993 51.0685 35.4027 50.9379 35.02C50.8165 34.6373 50.6159 34.2967 50.3359 33.998C50.0652 33.6993 49.7105 33.4613 49.2719 33.284C48.8332 33.0973 48.3012 33.004 47.6759 33.004H43.1679V43H45.3659V39.416H47.6759C48.3012 39.416 48.8332 39.3274 49.2719 39.15C49.7105 38.9633 50.0652 38.7207 50.3359 38.422Z" fill="#FF5E6D"/>
<defs>
<filter id="filter0_dAPP" x="0" y="0" width="74" height="74" filterUnits="userSpaceOnUse" color-interpolation-filters="sRGB">
<feFlood flood-opacity="0" result="BackgroundImageFix"/>
<feColorMatrix in="SourceAlpha" type="matrix" values="0 0 0 0 0 0 0 0 0 0 0 0 0 0 0 0 0 0 127 0"/>
<feOffset/>
<feGaussianBlur stdDeviation="5"/>
<feColorMatrix type="matrix" values="0 0 0 0 0 0 0 0 0 0 0 0 0 0 0 0 0 0 0.15 0"/>
<feBlend mode="normal" in2="BackgroundImageFix" result="effect1_dropShadow"/>
<feBlend mode="normal" in="SourceGraphic" in2="effect1_dropShadow" result="shape"/>
</filter>
</defs>
</svg>
