<svg width="26" height="27" viewBox="0 0 26 27" fill="none" xmlns="http://www.w3.org/2000/svg">
<path d="M0.589151 25.3038L2.73538 21.7263C3.72661 20.075 4.25038 18.1838 4.25038 16.2588V13.125C4.25038 9.16875 6.89038 5.82252 10.5004 4.74375V2.50002C10.5004 1.12125 11.6217 0 13.0004 0C14.3792 0 15.5004 1.12125 15.5004 2.50002V4.74375C19.1104 5.82252 21.7504 9.16875 21.7504 13.125V16.2588C21.7504 18.1838 22.2742 20.0737 23.2642 21.725L25.4104 25.3025C25.5267 25.4963 25.5292 25.7363 25.4179 25.9325C25.3066 26.1288 25.1004 26.2501 24.8754 26.2501H1.1254C0.900402 26.2501 0.692921 26.1288 0.581652 25.9338C0.470383 25.7388 0.474133 25.4963 0.589151 25.3038Z" fill="#828282"/>
</svg>
