<svg width="28" height="28" viewBox="0 0 28 28" fill="none" xmlns="http://www.w3.org/2000/svg">
<path fill-rule="evenodd" clip-rule="evenodd" d="M14.3055 23.639C9.15084 23.639 4.97217 19.4603 4.97217 14.3056C4.97217 9.15097 9.15084 4.97229 14.3055 4.97229C19.4602 4.97229 23.6388 9.15097 23.6388 14.3056C23.6388 19.4603 19.4602 23.639 14.3055 23.639ZM14.3033 22.5984C18.8845 22.5984 22.5983 18.8846 22.5983 14.3034C22.5983 9.7222 18.8845 6.0084 14.3033 6.0084C9.72208 6.0084 6.00828 9.7222 6.00828 14.3034C6.00828 18.8846 9.72208 22.5984 14.3033 22.5984ZM17.2796 14.7501H14.4796L14.5833 10.3056C14.5833 10.131 14.6354 9.96821 14.6793 9.83086C14.7589 9.58198 14.8117 9.41674 14.4796 9.41674C13.9641 9.41674 13.5462 9.8147 13.5462 10.3056V14.7501C13.5462 15.241 13.9641 15.639 14.4796 15.639H17.2796C17.795 15.639 18.2129 15.241 18.2129 14.7501C18.2129 14.4532 18.0601 14.5154 17.8253 14.6109C17.6718 14.6734 17.4833 14.7501 17.2796 14.7501Z" fill="black"/>
</svg>
