<?xml version="1.0" encoding="UTF-8"?>
<svg width="24px" height="24px" viewBox="0 0 24 24" version="1.1" xmlns="http://www.w3.org/2000/svg" xmlns:xlink="http://www.w3.org/1999/xlink">
    <g id="Page-1" stroke="none" stroke-width="1" fill="none" fill-rule="evenodd">
        <g id="icon-checkmark" fill="#FFFFFF">
            <path d="M12,24 C18.6274,24 24,18.6274 24,12 C24,5.37259 18.6274,0 12,0 C5.37256,0 0,5.37259 0,12 C0,18.6274 5.37256,24 12,24 Z M18.7071,9.70711 C19.0977,9.31659 19.0977,8.68341 18.7071,8.29289 C18.3166,7.90237 17.6834,7.90237 17.2929,8.29289 L11,14.5858 L7.70709,11.2929 C7.31659,10.9024 6.68341,10.9024 6.29291,11.2929 C5.90234,11.6834 5.90234,12.3166 6.29291,12.7071 L10.2929,16.7071 L11,17.4142 L11.7071,16.7071 L18.7071,9.70711 Z" id="Shape"></path>
        </g>
    </g>
</svg>