<svg width="282" height="201" viewBox="0 0 282 201" fill="none" xmlns="http://www.w3.org/2000/svg">
<path d="M208.48 72.7546C192.564 72.7546 179.408 85.9238 179.408 102.135C179.408 118.345 192.564 131.745 208.48 131.745C224.395 131.745 237.325 118.345 237.325 102.135C237.325 85.9238 224.395 72.7546 208.48 72.7546Z" fill="#FEDB41"/>
<path d="M208.485 78.6537C195.79 78.6537 185.2 89.1996 185.2 102.129C185.2 115.059 195.79 125.846 208.485 125.846C221.18 125.846 231.533 115.059 231.533 102.129C231.533 89.1996 221.18 78.6537 208.485 78.6537Z" fill="#FEA832"/>
<path fill-rule="evenodd" clip-rule="evenodd" d="M201.093 90.4518C200.541 90.4518 200.093 90.8995 200.093 91.4518V113.048C200.093 113.6 200.541 114.048 201.093 114.048H209.713C211.489 114.048 213.028 113.739 214.328 113.123C215.628 112.506 216.689 111.663 217.513 110.594C218.336 109.526 218.948 108.276 219.349 106.843C219.75 105.411 219.95 103.88 219.95 102.25C219.95 100.619 219.75 99.0883 219.349 97.6562C218.948 96.2241 218.336 94.9738 217.513 93.9053C216.689 92.8367 215.628 91.994 214.328 91.3771C213.028 90.7602 211.489 90.4518 209.713 90.4518H201.093ZM203.402 110.177C203.402 110.453 203.626 110.677 203.902 110.677H207.913C209.698 110.677 211.158 110.462 212.295 110.033C213.432 109.603 214.324 109.008 214.972 108.248C215.62 107.488 216.06 106.596 216.292 105.571C216.524 104.547 216.641 103.44 216.641 102.25C216.641 101.06 216.524 99.953 216.292 98.9285C216.06 97.9041 215.62 97.0118 214.972 96.2517C214.324 95.4916 213.432 94.8967 212.295 94.4671C211.158 94.0375 209.698 93.8227 207.913 93.8227H203.902C203.626 93.8227 203.402 94.0465 203.402 94.3227V110.177Z" fill="#FEDB41"/>
<path d="M214.328 113.123L214.242 112.942H214.242L214.328 113.123ZM217.513 110.594L217.671 110.716L217.513 110.594ZM219.349 106.843L219.541 106.897L219.349 106.843ZM217.513 93.9053L217.354 94.0273V94.0273L217.513 93.9053ZM214.328 91.3771L214.242 91.5578V91.5578L214.328 91.3771ZM212.295 110.033L212.224 109.846L212.295 110.033ZM214.972 108.248L214.82 108.118L214.972 108.248ZM216.292 105.571L216.487 105.615V105.615L216.292 105.571ZM216.292 98.9285L216.487 98.8843V98.8843L216.292 98.9285ZM214.972 96.2517L214.82 96.3814V96.3814L214.972 96.2517ZM212.295 94.4671L212.366 94.28L212.295 94.4671ZM200.293 91.4518C200.293 91.01 200.651 90.6518 201.093 90.6518V90.2518C200.43 90.2518 199.893 90.789 199.893 91.4518H200.293ZM200.293 113.048V91.4518H199.893V113.048H200.293ZM201.093 113.848C200.651 113.848 200.293 113.49 200.293 113.048H199.893C199.893 113.711 200.43 114.248 201.093 114.248V113.848ZM209.713 113.848H201.093V114.248H209.713V113.848ZM214.242 112.942C212.974 113.543 211.467 113.848 209.713 113.848V114.248C211.512 114.248 213.081 113.935 214.413 113.303L214.242 112.942ZM217.354 110.472C216.551 111.514 215.515 112.338 214.242 112.942L214.413 113.303C215.74 112.674 216.827 111.812 217.671 110.716L217.354 110.472ZM219.156 106.79C218.762 108.199 218.16 109.426 217.354 110.472L217.671 110.716C218.512 109.626 219.134 108.352 219.541 106.897L219.156 106.79ZM219.75 102.25C219.75 103.864 219.552 105.377 219.156 106.79L219.541 106.897C219.948 105.446 220.15 103.897 220.15 102.25H219.75ZM219.156 97.7101C219.552 99.123 219.75 100.636 219.75 102.25H220.15C220.15 100.603 219.948 99.0535 219.541 97.6023L219.156 97.7101ZM217.354 94.0273C218.16 95.0736 218.762 96.3002 219.156 97.7101L219.541 97.6023C219.134 96.148 218.512 94.8741 217.671 93.7832L217.354 94.0273ZM214.242 91.5578C215.515 92.1621 216.551 92.9855 217.354 94.0273L217.671 93.7832C216.827 92.688 215.74 91.8259 214.413 91.1964L214.242 91.5578ZM209.713 90.6518C211.467 90.6518 212.974 90.9563 214.242 91.5578L214.413 91.1964C213.081 90.5642 211.512 90.2518 209.713 90.2518V90.6518ZM201.093 90.6518H209.713V90.2518H201.093V90.6518ZM203.902 110.477C203.737 110.477 203.602 110.343 203.602 110.177H203.202C203.202 110.564 203.516 110.877 203.902 110.877V110.477ZM207.913 110.477H203.902V110.877H207.913V110.477ZM212.224 109.846C211.118 110.264 209.684 110.477 207.913 110.477V110.877C209.711 110.877 211.198 110.661 212.366 110.22L212.224 109.846ZM214.82 108.118C214.198 108.848 213.336 109.425 212.224 109.846L212.366 110.22C213.527 109.781 214.45 109.169 215.124 108.378L214.82 108.118ZM216.097 105.527C215.872 106.522 215.446 107.384 214.82 108.118L215.124 108.378C215.794 107.592 216.248 106.67 216.487 105.615L216.097 105.527ZM216.441 102.25C216.441 103.427 216.326 104.519 216.097 105.527L216.487 105.615C216.723 104.575 216.841 103.453 216.841 102.25H216.441ZM216.097 98.9728C216.326 99.981 216.441 101.073 216.441 102.25H216.841C216.841 101.047 216.723 99.9251 216.487 98.8843L216.097 98.9728ZM214.82 96.3814C215.446 97.1156 215.872 97.9781 216.097 98.9728L216.487 98.8843C216.248 97.83 215.794 96.9079 215.124 96.1219L214.82 96.3814ZM212.224 94.6542C213.336 95.0744 214.198 95.652 214.82 96.3814L215.124 96.1219C214.45 95.3311 213.527 94.719 212.366 94.28L212.224 94.6542ZM207.913 94.0227C209.684 94.0227 211.118 94.2361 212.224 94.6542L212.366 94.28C211.198 93.8388 209.711 93.6227 207.913 93.6227V94.0227ZM203.902 94.0227H207.913V93.6227H203.902V94.0227ZM203.602 94.3227C203.602 94.157 203.737 94.0227 203.902 94.0227V93.6227C203.516 93.6227 203.202 93.9361 203.202 94.3227H203.602ZM203.602 110.177V94.3227H203.202V110.177H203.602Z" fill="#FEDB41"/>
<rect x="200.093" y="100.564" width="6.61907" height="3.37088" rx="0.75" fill="#FEDB41" stroke="#FEDB41" stroke-width="0.4"/>
<path d="M196.783 91.2018C196.783 90.7876 197.119 90.4518 197.533 90.4518H203.402V93.8227H197.533C197.119 93.8227 196.783 93.4869 196.783 93.0727V91.2018Z" fill="#FEDB41" stroke="#FEDB41" stroke-width="0.4"/>
<path d="M196.783 111.427C196.783 111.013 197.119 110.677 197.533 110.677H203.402V114.048H197.533C197.119 114.048 196.783 113.712 196.783 113.298V111.427Z" fill="#FEDB41" stroke="#FEDB41" stroke-width="0.4"/>
<path d="M154.592 5.89905C138.677 5.89905 125.521 19.0682 125.521 35.279C125.521 51.4898 138.677 64.8894 154.592 64.8894C170.508 64.8894 183.437 51.4898 183.437 35.279C183.437 19.0682 170.508 5.89905 154.592 5.89905Z" fill="#FEDB41"/>
<path d="M154.597 11.7981C141.903 11.7981 131.312 22.344 131.312 35.2738C131.312 48.2037 141.903 58.9903 154.597 58.9903C167.292 58.9903 177.646 48.2037 177.646 35.2738C177.646 22.344 167.292 11.7981 154.597 11.7981Z" fill="#FEA832"/>
<path fill-rule="evenodd" clip-rule="evenodd" d="M147.205 23.5962C146.653 23.5962 146.205 24.0439 146.205 24.5962V46.1923C146.205 46.7446 146.653 47.1923 147.205 47.1923H155.825C157.602 47.1923 159.14 46.8839 160.44 46.267C161.74 45.6501 162.802 44.8074 163.625 43.7388C164.448 42.6703 165.06 41.42 165.461 39.9879C165.862 38.5558 166.062 37.0246 166.062 35.3943C166.062 33.7639 165.862 32.2327 165.461 30.8006C165.06 29.3685 164.448 28.1182 163.625 27.0497C162.802 25.9811 161.74 25.1384 160.44 24.5215C159.14 23.9046 157.602 23.5962 155.825 23.5962H147.205ZM149.515 43.3214C149.515 43.5976 149.739 43.8214 150.015 43.8214H154.025C155.81 43.8214 157.271 43.6066 158.407 43.177C159.544 42.7474 160.436 42.1525 161.084 41.3924C161.732 40.6323 162.172 39.74 162.404 38.7156C162.637 37.6911 162.753 36.584 162.753 35.3943C162.753 34.2045 162.637 33.0974 162.404 32.0729C162.172 31.0485 161.732 30.1562 161.084 29.3961C160.436 28.636 159.544 28.0411 158.407 27.6115C157.271 27.1819 155.81 26.9671 154.025 26.9671H150.015C149.739 26.9671 149.515 27.1909 149.515 27.4671V43.3214Z" fill="#FEDB41"/>
<path d="M160.44 46.267L160.354 46.0863H160.354L160.44 46.267ZM163.625 43.7388L163.783 43.8609L163.625 43.7388ZM165.461 39.9879L165.269 39.934L165.461 39.9879ZM165.461 30.8006L165.654 30.7467L165.461 30.8006ZM160.44 24.5215L160.526 24.3408L160.44 24.5215ZM158.407 43.177L158.337 42.9899L158.407 43.177ZM161.084 29.3961L160.932 29.5258L161.084 29.3961ZM158.407 27.6115L158.337 27.7986L158.407 27.6115ZM146.405 24.5962C146.405 24.1544 146.763 23.7962 147.205 23.7962V23.3962C146.542 23.3962 146.005 23.9334 146.005 24.5962H146.405ZM146.405 46.1923V24.5962H146.005V46.1923H146.405ZM147.205 46.9923C146.763 46.9923 146.405 46.6341 146.405 46.1923H146.005C146.005 46.8551 146.542 47.3923 147.205 47.3923V46.9923ZM155.825 46.9923H147.205V47.3923H155.825V46.9923ZM160.354 46.0863C159.087 46.6878 157.579 46.9923 155.825 46.9923V47.3923C157.625 47.3923 159.193 47.0799 160.526 46.4477L160.354 46.0863ZM163.466 43.6168C162.664 44.6586 161.628 45.482 160.354 46.0863L160.526 46.4477C161.852 45.8182 162.939 44.9561 163.783 43.8609L163.466 43.6168ZM165.269 39.934C164.874 41.3439 164.273 42.5705 163.466 43.6168L163.783 43.8609C164.624 42.77 165.247 41.496 165.654 40.0418L165.269 39.934ZM165.862 35.3943C165.862 37.0081 165.664 38.5211 165.269 39.934L165.654 40.0418C166.06 38.5906 166.262 37.0411 166.262 35.3943H165.862ZM165.269 30.8545C165.664 32.2674 165.862 33.7804 165.862 35.3943H166.262C166.262 33.7474 166.06 32.1979 165.654 30.7467L165.269 30.8545ZM163.466 27.1718C164.273 28.218 164.874 29.4446 165.269 30.8545L165.654 30.7467C165.247 29.2925 164.624 28.0185 163.783 26.9276L163.466 27.1718ZM160.354 24.7022C161.628 25.3065 162.664 26.1299 163.466 27.1718L163.783 26.9276C162.939 25.8324 161.852 24.9703 160.526 24.3408L160.354 24.7022ZM155.825 23.7962C157.579 23.7962 159.087 24.1007 160.354 24.7022L160.526 24.3408C159.193 23.7086 157.625 23.3962 155.825 23.3962V23.7962ZM147.205 23.7962H155.825V23.3962H147.205V23.7962ZM150.015 43.6214C149.849 43.6214 149.715 43.4871 149.715 43.3214H149.315C149.315 43.708 149.628 44.0214 150.015 44.0214V43.6214ZM154.025 43.6214H150.015V44.0214H154.025V43.6214ZM158.337 42.9899C157.23 43.408 155.796 43.6214 154.025 43.6214V44.0214C155.824 44.0214 157.311 43.8053 158.478 43.3641L158.337 42.9899ZM160.932 41.2627C160.31 41.9921 159.449 42.5697 158.337 42.9899L158.478 43.3641C159.64 42.9251 160.563 42.313 161.237 41.5222L160.932 41.2627ZM162.209 38.6713C161.984 39.666 161.558 40.5285 160.932 41.2627L161.237 41.5222C161.906 40.7362 162.361 39.8141 162.6 38.7598L162.209 38.6713ZM162.553 35.3943C162.553 36.571 162.438 37.6631 162.209 38.6713L162.6 38.7598C162.835 37.719 162.953 36.5969 162.953 35.3943H162.553ZM162.209 32.1172C162.438 33.1254 162.553 34.2175 162.553 35.3943H162.953C162.953 34.1916 162.835 33.0695 162.6 32.0287L162.209 32.1172ZM160.932 29.5258C161.558 30.26 161.984 31.1225 162.209 32.1172L162.6 32.0287C162.361 30.9744 161.906 30.0524 161.237 29.2663L160.932 29.5258ZM158.337 27.7986C159.449 28.2188 160.31 28.7964 160.932 29.5258L161.237 29.2663C160.563 28.4755 159.64 27.8634 158.478 27.4244L158.337 27.7986ZM154.025 27.1671C155.796 27.1671 157.23 27.3805 158.337 27.7986L158.478 27.4244C157.311 26.9832 155.824 26.7671 154.025 26.7671V27.1671ZM150.015 27.1671H154.025V26.7671H150.015V27.1671ZM149.715 27.4671C149.715 27.3014 149.849 27.1671 150.015 27.1671V26.7671C149.628 26.7671 149.315 27.0805 149.315 27.4671H149.715ZM149.715 43.3214V27.4671H149.315V43.3214H149.715Z" fill="#FEDB41"/>
<rect x="146.205" y="33.7089" width="6.61906" height="3.37088" rx="0.75" fill="#FEDB41" stroke="#FEDB41" stroke-width="0.4"/>
<path d="M142.896 24.3462C142.896 23.932 143.231 23.5962 143.646 23.5962H149.515V26.9671H143.646C143.231 26.9671 142.896 26.6313 142.896 26.2171V24.3462Z" fill="#FEDB41" stroke="#FEDB41" stroke-width="0.4"/>
<path d="M142.896 44.5714C142.896 44.1572 143.231 43.8214 143.646 43.8214H149.515V47.1923H143.646C143.231 47.1923 142.896 46.8565 142.896 46.4423V44.5714Z" fill="#FEDB41" stroke="#FEDB41" stroke-width="0.4"/>
<path d="M175.392 37.3605C159.477 37.3605 146.321 50.5296 146.321 66.7404C146.321 82.9512 159.477 96.3508 175.392 96.3508C191.308 96.3508 204.238 82.9512 204.238 66.7404C204.238 50.5296 191.308 37.3605 175.392 37.3605Z" fill="#FEDB41"/>
<path d="M175.397 43.2595C162.703 43.2595 152.112 53.8054 152.112 66.7353C152.112 79.6651 162.703 90.4518 175.397 90.4518C188.092 90.4518 198.446 79.6651 198.446 66.7353C198.446 53.8054 188.092 43.2595 175.397 43.2595Z" fill="#FEA832"/>
<path fill-rule="evenodd" clip-rule="evenodd" d="M168.005 55.0576C167.453 55.0576 167.005 55.5053 167.005 56.0576V77.6537C167.005 78.206 167.453 78.6537 168.005 78.6537H176.625C178.402 78.6537 179.94 78.3453 181.24 77.7284C182.54 77.1115 183.602 76.2688 184.425 75.2002C185.248 74.1317 185.86 72.8814 186.261 71.4493C186.662 70.0172 186.863 68.486 186.863 66.8557C186.863 65.2253 186.662 63.6941 186.261 62.262C185.86 60.83 185.248 59.5797 184.425 58.5111C183.602 57.4426 182.54 56.5999 181.24 55.983C179.94 55.3661 178.402 55.0576 176.625 55.0576H168.005ZM170.315 74.7829C170.315 75.059 170.539 75.2829 170.815 75.2829H174.825C176.61 75.2829 178.071 75.0681 179.208 74.6384C180.344 74.2088 181.237 73.614 181.885 72.8539C182.532 72.0937 182.972 71.2015 183.205 70.177C183.437 69.1525 183.553 68.0454 183.553 66.8557C183.553 65.666 183.437 64.5589 183.205 63.5344C182.972 62.5099 182.532 61.6176 181.885 60.8575C181.237 60.0974 180.344 59.5025 179.208 59.0729C178.071 58.6433 176.61 58.4285 174.825 58.4285H170.815C170.539 58.4285 170.315 58.6523 170.315 58.9285V74.7829Z" fill="#FEDB41"/>
<path d="M181.24 77.7284L181.154 77.5477H181.154L181.24 77.7284ZM184.425 75.2002L184.584 75.3223L184.425 75.2002ZM186.261 71.4493L186.069 71.3954L186.261 71.4493ZM186.261 62.262L186.454 62.2081L186.261 62.262ZM181.24 55.983L181.326 55.8023L181.24 55.983ZM179.208 74.6384L179.137 74.4513L179.208 74.6384ZM181.885 60.8575L181.732 60.9872L181.885 60.8575ZM179.208 59.0729L179.137 59.26L179.208 59.0729ZM167.205 56.0576C167.205 55.6158 167.564 55.2576 168.005 55.2576V54.8576C167.343 54.8576 166.805 55.3949 166.805 56.0576H167.205ZM167.205 77.6537V56.0576H166.805V77.6537H167.205ZM168.005 78.4537C167.564 78.4537 167.205 78.0956 167.205 77.6537H166.805C166.805 78.3165 167.343 78.8537 168.005 78.8537V78.4537ZM176.625 78.4537H168.005V78.8537H176.625V78.4537ZM181.154 77.5477C179.887 78.1493 178.379 78.4537 176.625 78.4537V78.8537C178.425 78.8537 179.994 78.5413 181.326 77.9091L181.154 77.5477ZM184.267 75.0782C183.464 76.1201 182.428 76.9434 181.154 77.5477L181.326 77.9091C182.652 77.2796 183.74 76.4175 184.584 75.3223L184.267 75.0782ZM186.069 71.3954C185.674 72.8053 185.073 74.0319 184.267 75.0782L184.584 75.3223C185.424 74.2315 186.047 72.9575 186.454 71.5032L186.069 71.3954ZM186.663 66.8557C186.663 68.4696 186.464 69.9825 186.069 71.3954L186.454 71.5032C186.86 70.052 187.063 68.5025 187.063 66.8557H186.663ZM186.069 62.3159C186.464 63.7289 186.663 65.2418 186.663 66.8557H187.063C187.063 65.2088 186.86 63.6594 186.454 62.2081L186.069 62.3159ZM184.267 58.6332C185.073 59.6794 185.674 60.906 186.069 62.3159L186.454 62.2081C186.047 60.7539 185.424 59.4799 184.584 58.389L184.267 58.6332ZM181.154 56.1636C182.428 56.7679 183.464 57.5913 184.267 58.6332L184.584 58.389C183.74 57.2938 182.652 56.4318 181.326 55.8023L181.154 56.1636ZM176.625 55.2576C178.379 55.2576 179.887 55.5621 181.154 56.1636L181.326 55.8023C179.994 55.17 178.425 54.8576 176.625 54.8576V55.2576ZM168.005 55.2576H176.625V54.8576H168.005V55.2576ZM170.815 75.0829C170.649 75.0829 170.515 74.9486 170.515 74.7829H170.115C170.115 75.1695 170.428 75.4829 170.815 75.4829V75.0829ZM174.825 75.0829H170.815V75.4829H174.825V75.0829ZM179.137 74.4513C178.031 74.8694 176.596 75.0829 174.825 75.0829V75.4829C176.624 75.4829 178.111 75.2667 179.278 74.8255L179.137 74.4513ZM181.732 72.7241C181.111 73.4535 180.249 74.0311 179.137 74.4513L179.278 74.8255C180.44 74.3865 181.363 73.7744 182.037 72.9836L181.732 72.7241ZM183.01 70.1328C182.784 71.1274 182.358 71.9899 181.732 72.7241L182.037 72.9836C182.707 72.1976 183.161 71.2755 183.4 70.2212L183.01 70.1328ZM183.353 66.8557C183.353 68.0325 183.238 69.1245 183.01 70.1328L183.4 70.2212C183.636 69.1804 183.753 68.0584 183.753 66.8557H183.353ZM183.01 63.5786C183.238 64.5868 183.353 65.6789 183.353 66.8557H183.753C183.753 65.653 183.636 64.5309 183.4 63.4902L183.01 63.5786ZM181.732 60.9872C182.358 61.7214 182.784 62.584 183.01 63.5786L183.4 63.4902C183.161 62.4358 182.707 61.5138 182.037 60.7278L181.732 60.9872ZM179.137 59.26C180.249 59.6803 181.111 60.2578 181.732 60.9872L182.037 60.7278C181.363 59.937 180.44 59.3248 179.278 58.8858L179.137 59.26ZM174.825 58.6285C176.596 58.6285 178.031 58.8419 179.137 59.26L179.278 58.8858C178.111 58.4447 176.624 58.2285 174.825 58.2285V58.6285ZM170.815 58.6285H174.825V58.2285H170.815V58.6285ZM170.515 58.9285C170.515 58.7628 170.649 58.6285 170.815 58.6285V58.2285C170.428 58.2285 170.115 58.5419 170.115 58.9285H170.515ZM170.515 74.7829V58.9285H170.115V74.7829H170.515Z" fill="#FEDB41"/>
<rect x="167.005" y="65.1703" width="6.61906" height="3.37088" rx="0.75" fill="#FEDB41" stroke="#FEDB41" stroke-width="0.4"/>
<path d="M163.696 55.8076C163.696 55.3934 164.032 55.0576 164.446 55.0576H170.315V58.4285H164.446C164.032 58.4285 163.696 58.0927 163.696 57.6785V55.8076Z" fill="#FEDB41" stroke="#FEDB41" stroke-width="0.4"/>
<path d="M163.696 76.0328C163.696 75.6186 164.032 75.2828 164.446 75.2828H170.315V78.6537H164.446C164.032 78.6537 163.696 78.3179 163.696 77.9037V76.0328Z" fill="#FEDB41" stroke="#FEDB41" stroke-width="0.4"/>
<path d="M128.354 37.3605C112.439 37.3605 99.283 50.5296 99.283 66.7404C99.283 82.9512 112.439 96.3508 128.354 96.3508C144.27 96.3508 157.2 82.9512 157.2 66.7404C157.2 50.5296 144.27 37.3605 128.354 37.3605Z" fill="#FEDB41"/>
<path d="M128.36 43.2595C115.665 43.2595 105.075 53.8054 105.075 66.7353C105.075 79.6651 115.665 90.4518 128.36 90.4518C141.054 90.4518 151.408 79.6651 151.408 66.7353C151.408 53.8054 141.054 43.2595 128.36 43.2595Z" fill="#FEA832"/>
<path fill-rule="evenodd" clip-rule="evenodd" d="M120.968 55.0576C120.415 55.0576 119.968 55.5053 119.968 56.0576V77.6537C119.968 78.206 120.415 78.6537 120.968 78.6537H129.587C131.364 78.6537 132.902 78.3453 134.202 77.7284C135.502 77.1115 136.564 76.2688 137.387 75.2002C138.211 74.1317 138.823 72.8814 139.223 71.4493C139.624 70.0172 139.825 68.486 139.825 66.8557C139.825 65.2253 139.624 63.6941 139.223 62.262C138.823 60.83 138.211 59.5797 137.387 58.5111C136.564 57.4426 135.502 56.5999 134.202 55.983C132.902 55.3661 131.364 55.0576 129.587 55.0576H120.968ZM123.277 74.7829C123.277 75.059 123.501 75.2829 123.777 75.2829H127.788C129.572 75.2829 131.033 75.0681 132.17 74.6384C133.307 74.2088 134.199 73.614 134.847 72.8539C135.495 72.0937 135.935 71.2015 136.167 70.177C136.399 69.1525 136.515 68.0454 136.515 66.8557C136.515 65.666 136.399 64.5589 136.167 63.5344C135.935 62.5099 135.495 61.6176 134.847 60.8575C134.199 60.0974 133.307 59.5025 132.17 59.0729C131.033 58.6433 129.572 58.4285 127.788 58.4285H123.777C123.501 58.4285 123.277 58.6523 123.277 58.9285V74.7829Z" fill="#FEDB41"/>
<path d="M134.202 77.7284L134.117 77.5477H134.117L134.202 77.7284ZM137.387 75.2002L137.546 75.3223L137.387 75.2002ZM139.223 71.4493L139.031 71.3954L139.223 71.4493ZM139.223 62.262L139.416 62.2081L139.223 62.262ZM134.202 55.983L134.117 56.1636L134.202 55.983ZM132.17 74.6384L132.099 74.4513L132.17 74.6384ZM134.847 72.8539L134.694 72.7241L134.847 72.8539ZM136.167 70.177L136.362 70.2212V70.2212L136.167 70.177ZM136.167 63.5344L136.362 63.4902V63.4902L136.167 63.5344ZM134.847 60.8575L134.694 60.9872V60.9872L134.847 60.8575ZM132.17 59.0729L132.099 59.26L132.17 59.0729ZM120.168 56.0576C120.168 55.6158 120.526 55.2576 120.968 55.2576V54.8576C120.305 54.8576 119.768 55.3949 119.768 56.0576H120.168ZM120.168 77.6537V56.0576H119.768V77.6537H120.168ZM120.968 78.4537C120.526 78.4537 120.168 78.0956 120.168 77.6537H119.768C119.768 78.3165 120.305 78.8537 120.968 78.8537V78.4537ZM129.587 78.4537H120.968V78.8537H129.587V78.4537ZM134.117 77.5477C132.849 78.1493 131.341 78.4537 129.587 78.4537V78.8537C131.387 78.8537 132.956 78.5413 134.288 77.9091L134.117 77.5477ZM137.229 75.0782C136.426 76.1201 135.39 76.9434 134.117 77.5477L134.288 77.9091C135.615 77.2796 136.702 76.4175 137.546 75.3223L137.229 75.0782ZM139.031 71.3954C138.636 72.8053 138.035 74.0319 137.229 75.0782L137.546 75.3223C138.386 74.2315 139.009 72.9575 139.416 71.5032L139.031 71.3954ZM139.625 66.8557C139.625 68.4696 139.426 69.9825 139.031 71.3954L139.416 71.5032C139.822 70.052 140.025 68.5025 140.025 66.8557H139.625ZM139.031 62.3159C139.426 63.7289 139.625 65.2418 139.625 66.8557H140.025C140.025 65.2088 139.822 63.6594 139.416 62.2081L139.031 62.3159ZM137.229 58.6332C138.035 59.6794 138.636 60.906 139.031 62.3159L139.416 62.2081C139.009 60.7539 138.386 59.4799 137.546 58.389L137.229 58.6332ZM134.117 56.1636C135.39 56.7679 136.426 57.5913 137.229 58.6332L137.546 58.389C136.702 57.2938 135.615 56.4318 134.288 55.8023L134.117 56.1636ZM129.587 55.2576C131.341 55.2576 132.849 55.5621 134.117 56.1636L134.288 55.8023C132.956 55.17 131.387 54.8576 129.587 54.8576V55.2576ZM120.968 55.2576H129.587V54.8576H120.968V55.2576ZM123.777 75.0829C123.611 75.0829 123.477 74.9486 123.477 74.7829H123.077C123.077 75.1695 123.39 75.4829 123.777 75.4829V75.0829ZM127.788 75.0829H123.777V75.4829H127.788V75.0829ZM132.099 74.4513C130.993 74.8694 129.558 75.0829 127.788 75.0829V75.4829C129.586 75.4829 131.073 75.2667 132.24 74.8255L132.099 74.4513ZM134.694 72.7241C134.073 73.4535 133.211 74.0311 132.099 74.4513L132.24 74.8255C133.402 74.3865 134.325 73.7744 134.999 72.9836L134.694 72.7241ZM135.972 70.1328C135.746 71.1274 135.32 71.9899 134.694 72.7241L134.999 72.9836C135.669 72.1976 136.123 71.2755 136.362 70.2212L135.972 70.1328ZM136.315 66.8557C136.315 68.0325 136.2 69.1245 135.972 70.1328L136.362 70.2212C136.598 69.1804 136.715 68.0584 136.715 66.8557H136.315ZM135.972 63.5786C136.2 64.5868 136.315 65.6789 136.315 66.8557H136.715C136.715 65.653 136.598 64.5309 136.362 63.4902L135.972 63.5786ZM134.694 60.9872C135.32 61.7214 135.746 62.584 135.972 63.5786L136.362 63.4902C136.123 62.4358 135.669 61.5138 134.999 60.7278L134.694 60.9872ZM132.099 59.26C133.211 59.6803 134.073 60.2578 134.694 60.9872L134.999 60.7278C134.325 59.937 133.402 59.3248 132.24 58.8858L132.099 59.26ZM127.788 58.6285C129.558 58.6285 130.993 58.8419 132.099 59.26L132.24 58.8858C131.073 58.4447 129.586 58.2285 127.788 58.2285V58.6285ZM123.777 58.6285H127.788V58.2285H123.777V58.6285ZM123.477 58.9285C123.477 58.7628 123.611 58.6285 123.777 58.6285V58.2285C123.39 58.2285 123.077 58.5419 123.077 58.9285H123.477ZM123.477 74.7829V58.9285H123.077V74.7829H123.477Z" fill="#FEDB41"/>
<rect x="119.968" y="65.1703" width="6.61907" height="3.37088" rx="0.75" fill="#FEDB41" stroke="#FEDB41" stroke-width="0.4"/>
<path d="M116.658 55.8076C116.658 55.3934 116.994 55.0576 117.408 55.0576H123.277V58.4285H117.408C116.994 58.4285 116.658 58.0927 116.658 57.6785V55.8076Z" fill="#FEDB41" stroke="#FEDB41" stroke-width="0.4"/>
<path d="M116.658 76.0328C116.658 75.6186 116.994 75.2828 117.408 75.2828H123.277V78.6537H117.408C116.994 78.6537 116.658 78.3179 116.658 77.9037V76.0328Z" fill="#FEDB41" stroke="#FEDB41" stroke-width="0.4"/>
<path d="M225.284 113.72C204.871 113.72 187.997 130.547 187.997 151.261C187.997 171.975 204.871 189.097 225.284 189.097C245.698 189.097 262.282 171.975 262.282 151.261C262.282 130.547 245.698 113.72 225.284 113.72Z" fill="#FEDB41"/>
<path d="M225.291 121.258C209.009 121.258 195.425 134.733 195.425 151.255C195.425 167.776 209.009 181.559 225.291 181.559C241.573 181.559 254.853 167.776 254.853 151.255C254.853 134.733 241.573 121.258 225.291 121.258Z" fill="#FEA832"/>
<path fill-rule="evenodd" clip-rule="evenodd" d="M215.527 136.333C214.975 136.333 214.527 136.781 214.527 137.333V165.484C214.527 166.036 214.975 166.484 215.527 166.484H226.866C229.144 166.484 231.117 166.09 232.785 165.301C234.452 164.513 235.814 163.436 236.87 162.071C237.926 160.706 238.711 159.108 239.225 157.278C239.739 155.448 239.996 153.492 239.996 151.408C239.996 149.325 239.739 147.369 239.225 145.539C238.711 143.709 237.926 142.111 236.87 140.746C235.814 139.381 234.452 138.304 232.785 137.516C231.117 136.727 229.144 136.333 226.866 136.333H215.527ZM218.772 161.677C218.772 161.953 218.996 162.177 219.272 162.177H224.557C226.846 162.177 228.72 161.902 230.178 161.353C231.636 160.804 232.78 160.044 233.611 159.073C234.442 158.102 235.007 156.961 235.305 155.652C235.602 154.343 235.751 152.929 235.751 151.408C235.751 149.888 235.602 148.474 235.305 147.165C235.007 145.855 234.442 144.715 233.611 143.744C232.78 142.773 231.636 142.013 230.178 141.464C228.72 140.915 226.846 140.64 224.557 140.64H219.272C218.996 140.64 218.772 140.864 218.772 141.14V161.677Z" fill="#FEDB41"/>
<path d="M232.785 165.301L232.699 165.121L232.785 165.301ZM236.87 162.071L236.712 161.949H236.712L236.87 162.071ZM239.225 145.539L239.418 145.485L239.225 145.539ZM236.87 140.746L236.712 140.868H236.712L236.87 140.746ZM232.785 137.516L232.87 137.335L232.785 137.516ZM230.178 161.353L230.248 161.54L230.178 161.353ZM235.305 155.652L235.11 155.608L235.305 155.652ZM235.305 147.165L235.11 147.209L235.305 147.165ZM233.611 143.744L233.459 143.874L233.611 143.744ZM230.178 141.464L230.248 141.277L230.178 141.464ZM214.727 137.333C214.727 136.891 215.085 136.533 215.527 136.533V136.133C214.864 136.133 214.327 136.67 214.327 137.333H214.727ZM214.727 165.484V137.333H214.327V165.484H214.727ZM215.527 166.284C215.085 166.284 214.727 165.926 214.727 165.484H214.327C214.327 166.146 214.864 166.684 215.527 166.684V166.284ZM226.866 166.284H215.527V166.684H226.866V166.284ZM232.699 165.121C231.064 165.894 229.122 166.284 226.866 166.284V166.684C229.167 166.684 231.171 166.286 232.87 165.482L232.699 165.121ZM236.712 161.949C235.676 163.287 234.34 164.345 232.699 165.121L232.87 165.482C234.564 164.681 235.952 163.585 237.028 162.193L236.712 161.949ZM239.033 157.224C238.525 159.032 237.75 160.606 236.712 161.949L237.028 162.193C238.101 160.806 238.897 159.184 239.418 157.332L239.033 157.224ZM239.796 151.408C239.796 153.475 239.541 155.413 239.033 157.224L239.418 157.332C239.937 155.483 240.196 153.508 240.196 151.408H239.796ZM239.033 145.593C239.541 147.404 239.796 149.342 239.796 151.408H240.196C240.196 149.309 239.937 147.334 239.418 145.485L239.033 145.593ZM236.712 140.868C237.75 142.211 238.525 143.785 239.033 145.593L239.418 145.485C238.897 143.633 238.101 142.011 237.028 140.624L236.712 140.868ZM232.699 137.696C234.34 138.472 235.676 139.53 236.712 140.868L237.028 140.624C235.952 139.232 234.564 138.135 232.87 137.335L232.699 137.696ZM226.866 136.533C229.122 136.533 231.064 136.923 232.699 137.696L232.87 137.335C231.171 136.531 229.167 136.133 226.866 136.133V136.533ZM215.527 136.533H226.866V136.133H215.527V136.533ZM219.272 161.977C219.106 161.977 218.972 161.842 218.972 161.677H218.572C218.572 162.063 218.885 162.377 219.272 162.377V161.977ZM224.557 161.977H219.272V162.377H224.557V161.977ZM230.107 161.166C228.68 161.703 226.832 161.977 224.557 161.977V162.377C226.86 162.377 228.76 162.101 230.248 161.54L230.107 161.166ZM233.459 158.943C232.655 159.883 231.541 160.626 230.107 161.166L230.248 161.54C231.731 160.982 232.906 160.205 233.763 159.203L233.459 158.943ZM235.11 155.608C234.818 156.887 234.268 157.997 233.459 158.943L233.763 159.203C234.616 158.206 235.195 157.036 235.5 155.697L235.11 155.608ZM235.551 151.408C235.551 152.916 235.404 154.315 235.11 155.608L235.5 155.697C235.801 154.371 235.951 152.942 235.951 151.408H235.551ZM235.11 147.209C235.404 148.502 235.551 149.901 235.551 151.408H235.951C235.951 149.875 235.801 148.446 235.5 147.12L235.11 147.209ZM233.459 143.874C234.268 144.819 234.818 145.93 235.11 147.209L235.5 147.12C235.195 145.781 234.616 144.611 233.763 143.614L233.459 143.874ZM230.107 141.651C231.541 142.191 232.655 142.934 233.459 143.874L233.763 143.614C232.906 142.612 231.731 141.835 230.248 141.277L230.107 141.651ZM224.557 140.84C226.832 140.84 228.68 141.113 230.107 141.651L230.248 141.277C228.76 140.716 226.86 140.44 224.557 140.44V140.84ZM219.272 140.84H224.557V140.44H219.272V140.84ZM218.972 141.14C218.972 140.975 219.106 140.84 219.272 140.84V140.44C218.885 140.44 218.572 140.754 218.572 141.14H218.972ZM218.972 161.677V141.14H218.572V161.677H218.972Z" fill="#FEDB41"/>
<rect x="214.527" y="149.255" width="8.48967" height="4.30723" rx="0.75" fill="#FEDB41" stroke="#FEDB41" stroke-width="0.4"/>
<path d="M210.282 137.083C210.282 136.669 210.618 136.333 211.032 136.333H218.772V140.64H211.032C210.618 140.64 210.282 140.305 210.282 139.89V137.083Z" fill="#FEDB41" stroke="#FEDB41" stroke-width="0.4"/>
<path d="M210.282 162.927C210.282 162.512 210.618 162.177 211.032 162.177H218.772V166.484H211.032C210.618 166.484 210.282 166.148 210.282 165.734V162.927Z" fill="#FEDB41" stroke="#FEDB41" stroke-width="0.4"/>
<path d="M163.307 72.7546C147.391 72.7546 134.235 85.9238 134.235 102.135C134.235 118.345 147.391 131.745 163.307 131.745C179.222 131.745 192.152 118.345 192.152 102.135C192.152 85.9238 179.222 72.7546 163.307 72.7546Z" fill="#FEDB41"/>
<path d="M163.312 78.6537C150.617 78.6537 140.027 89.1996 140.027 102.129C140.027 115.059 150.617 125.846 163.312 125.846C176.007 125.846 186.36 115.059 186.36 102.129C186.36 89.1996 176.007 78.6537 163.312 78.6537Z" fill="#FEA832"/>
<path fill-rule="evenodd" clip-rule="evenodd" d="M155.92 90.4518C155.368 90.4518 154.92 90.8995 154.92 91.4518V113.048C154.92 113.6 155.368 114.048 155.92 114.048H164.54C166.316 114.048 167.855 113.739 169.155 113.123C170.455 112.506 171.516 111.663 172.34 110.594C173.163 109.526 173.775 108.276 174.176 106.843C174.577 105.411 174.777 103.88 174.777 102.25C174.777 100.619 174.577 99.0883 174.176 97.6562C173.775 96.2241 173.163 94.9738 172.34 93.9053C171.516 92.8367 170.455 91.994 169.155 91.3771C167.855 90.7602 166.316 90.4518 164.54 90.4518H155.92ZM158.229 110.177C158.229 110.453 158.453 110.677 158.729 110.677H162.74C164.525 110.677 165.985 110.462 167.122 110.033C168.259 109.603 169.151 109.008 169.799 108.248C170.447 107.488 170.887 106.596 171.119 105.571C171.351 104.547 171.468 103.44 171.468 102.25C171.468 101.06 171.351 99.953 171.119 98.9285C170.887 97.9041 170.447 97.0118 169.799 96.2517C169.151 95.4916 168.259 94.8967 167.122 94.4671C165.985 94.0375 164.525 93.8227 162.74 93.8227H158.729C158.453 93.8227 158.229 94.0465 158.229 94.3227V110.177Z" fill="#FEDB41"/>
<path d="M169.155 113.123L169.069 112.942H169.069L169.155 113.123ZM172.34 110.594L172.498 110.716L172.34 110.594ZM174.176 106.843L174.368 106.897L174.176 106.843ZM172.34 93.9053L172.181 94.0273V94.0273L172.34 93.9053ZM167.122 110.033L167.051 109.846L167.122 110.033ZM169.799 108.248L169.647 108.118L169.799 108.248ZM171.119 105.571L171.314 105.615L171.119 105.571ZM169.799 96.2517L169.647 96.3814L169.799 96.2517ZM167.122 94.4671L167.193 94.28L167.122 94.4671ZM155.12 91.4518C155.12 91.01 155.478 90.6518 155.92 90.6518V90.2518C155.257 90.2518 154.72 90.789 154.72 91.4518H155.12ZM155.12 113.048V91.4518H154.72V113.048H155.12ZM155.92 113.848C155.478 113.848 155.12 113.49 155.12 113.048H154.72C154.72 113.711 155.257 114.248 155.92 114.248V113.848ZM164.54 113.848H155.92V114.248H164.54V113.848ZM169.069 112.942C167.801 113.543 166.294 113.848 164.54 113.848V114.248C166.339 114.248 167.908 113.935 169.24 113.303L169.069 112.942ZM172.181 110.472C171.378 111.514 170.342 112.338 169.069 112.942L169.24 113.303C170.567 112.674 171.654 111.812 172.498 110.716L172.181 110.472ZM173.983 106.79C173.589 108.199 172.987 109.426 172.181 110.472L172.498 110.716C173.339 109.626 173.961 108.352 174.368 106.897L173.983 106.79ZM174.577 102.25C174.577 103.864 174.379 105.377 173.983 106.79L174.368 106.897C174.775 105.446 174.977 103.897 174.977 102.25H174.577ZM173.983 97.7101C174.379 99.123 174.577 100.636 174.577 102.25H174.977C174.977 100.603 174.775 99.0535 174.368 97.6023L173.983 97.7101ZM172.181 94.0273C172.987 95.0736 173.589 96.3002 173.983 97.7101L174.368 97.6023C173.961 96.148 173.339 94.8741 172.498 93.7832L172.181 94.0273ZM169.069 91.5578C170.342 92.1621 171.378 92.9855 172.181 94.0273L172.498 93.7832C171.654 92.688 170.567 91.8259 169.24 91.1964L169.069 91.5578ZM164.54 90.6518C166.294 90.6518 167.801 90.9563 169.069 91.5578L169.24 91.1964C167.908 90.5642 166.339 90.2518 164.54 90.2518V90.6518ZM155.92 90.6518H164.54V90.2518H155.92V90.6518ZM158.729 110.477C158.564 110.477 158.429 110.343 158.429 110.177H158.029C158.029 110.564 158.343 110.877 158.729 110.877V110.477ZM162.74 110.477H158.729V110.877H162.74V110.477ZM167.051 109.846C165.945 110.264 164.511 110.477 162.74 110.477V110.877C164.538 110.877 166.025 110.661 167.193 110.22L167.051 109.846ZM169.647 108.118C169.025 108.848 168.163 109.425 167.051 109.846L167.193 110.22C168.354 109.781 169.277 109.169 169.951 108.378L169.647 108.118ZM170.924 105.527C170.699 106.522 170.273 107.384 169.647 108.118L169.951 108.378C170.621 107.592 171.075 106.67 171.314 105.615L170.924 105.527ZM171.268 102.25C171.268 103.427 171.153 104.519 170.924 105.527L171.314 105.615C171.55 104.575 171.668 103.453 171.668 102.25H171.268ZM170.924 98.9728C171.153 99.981 171.268 101.073 171.268 102.25H171.668C171.668 101.047 171.55 99.9251 171.314 98.8843L170.924 98.9728ZM169.647 96.3814C170.273 97.1156 170.699 97.9781 170.924 98.9728L171.314 98.8843C171.075 97.83 170.621 96.9079 169.951 96.1219L169.647 96.3814ZM167.051 94.6542C168.163 95.0744 169.025 95.652 169.647 96.3814L169.951 96.1219C169.277 95.3311 168.354 94.719 167.193 94.28L167.051 94.6542ZM162.74 94.0227C164.511 94.0227 165.945 94.2361 167.051 94.6542L167.193 94.28C166.025 93.8388 164.538 93.6227 162.74 93.6227V94.0227ZM158.729 94.0227H162.74V93.6227H158.729V94.0227ZM158.429 94.3227C158.429 94.157 158.564 94.0227 158.729 94.0227V93.6227C158.343 93.6227 158.029 93.9361 158.029 94.3227H158.429ZM158.429 110.177V94.3227H158.029V110.177H158.429Z" fill="#FEDB41"/>
<rect x="154.92" y="100.564" width="6.61906" height="3.37088" rx="0.75" fill="#FEDB41" stroke="#FEDB41" stroke-width="0.4"/>
<path d="M151.61 91.2018C151.61 90.7876 151.946 90.4518 152.36 90.4518H158.229V93.8227H152.36C151.946 93.8227 151.61 93.4869 151.61 93.0727V91.2018Z" fill="#FEDB41" stroke="#FEDB41" stroke-width="0.4"/>
<path d="M151.61 111.427C151.61 111.013 151.946 110.677 152.36 110.677H158.229V114.048H152.36C151.946 114.048 151.61 113.712 151.61 113.298V111.427Z" fill="#FEDB41" stroke="#FEDB41" stroke-width="0.4"/>
<path d="M118.131 72.7546C102.215 72.7546 89.0594 85.9238 89.0594 102.135C89.0594 118.345 102.215 131.745 118.131 131.745C134.047 131.745 146.976 118.345 146.976 102.135C146.976 85.9238 134.047 72.7546 118.131 72.7546Z" fill="#FEDB41"/>
<path d="M118.136 78.6537C105.441 78.6537 94.8511 89.1996 94.8511 102.129C94.8511 115.059 105.441 125.846 118.136 125.846C130.831 125.846 141.184 115.059 141.184 102.129C141.184 89.1996 130.831 78.6537 118.136 78.6537Z" fill="#FEA832"/>
<path fill-rule="evenodd" clip-rule="evenodd" d="M110.744 90.4518C110.192 90.4518 109.744 90.8995 109.744 91.4518V113.048C109.744 113.6 110.192 114.048 110.744 114.048H119.364C121.141 114.048 122.679 113.739 123.979 113.123C125.279 112.506 126.34 111.663 127.164 110.594C127.987 109.526 128.599 108.276 129 106.843C129.401 105.411 129.601 103.88 129.601 102.25C129.601 100.619 129.401 99.0883 129 97.6562C128.599 96.2241 127.987 94.9738 127.164 93.9053C126.34 92.8367 125.279 91.994 123.979 91.3771C122.679 90.7602 121.141 90.4518 119.364 90.4518H110.744ZM113.054 110.177C113.054 110.453 113.277 110.677 113.554 110.677H117.564C119.349 110.677 120.809 110.462 121.946 110.033C123.083 109.603 123.975 109.008 124.623 108.248C125.271 107.488 125.711 106.596 125.943 105.571C126.176 104.547 126.292 103.44 126.292 102.25C126.292 101.06 126.176 99.953 125.943 98.9285C125.711 97.9041 125.271 97.0118 124.623 96.2517C123.975 95.4916 123.083 94.8967 121.946 94.4671C120.809 94.0375 119.349 93.8227 117.564 93.8227H113.554C113.277 93.8227 113.054 94.0465 113.054 94.3227V110.177Z" fill="#FEDB41"/>
<path d="M123.979 113.123L123.893 112.942H123.893L123.979 113.123ZM127.164 110.594L127.322 110.716L127.164 110.594ZM129 106.843L129.193 106.897L129 106.843ZM129 97.6562L129.193 97.6023L129 97.6562ZM127.164 93.9053L127.005 94.0273V94.0273L127.164 93.9053ZM123.979 91.3771L124.065 91.1964V91.1964L123.979 91.3771ZM121.946 110.033L121.875 109.846L121.946 110.033ZM124.623 108.248L124.471 108.118L124.623 108.248ZM125.943 105.571L126.138 105.615L125.943 105.571ZM124.623 96.2517L124.471 96.3814L124.623 96.2517ZM121.946 94.4671L122.017 94.28L121.946 94.4671ZM109.944 91.4518C109.944 91.01 110.302 90.6518 110.744 90.6518V90.2518C110.081 90.2518 109.544 90.789 109.544 91.4518H109.944ZM109.944 113.048V91.4518H109.544V113.048H109.944ZM110.744 113.848C110.302 113.848 109.944 113.49 109.944 113.048H109.544C109.544 113.711 110.081 114.248 110.744 114.248V113.848ZM119.364 113.848H110.744V114.248H119.364V113.848ZM123.893 112.942C122.625 113.543 121.118 113.848 119.364 113.848V114.248C121.163 114.248 122.732 113.935 124.065 113.303L123.893 112.942ZM127.005 110.472C126.203 111.514 125.166 112.338 123.893 112.942L124.065 113.303C125.391 112.674 126.478 111.812 127.322 110.716L127.005 110.472ZM128.807 106.79C128.413 108.199 127.811 109.426 127.005 110.472L127.322 110.716C128.163 109.626 128.786 108.352 129.193 106.897L128.807 106.79ZM129.401 102.25C129.401 103.864 129.203 105.377 128.807 106.79L129.193 106.897C129.599 105.446 129.801 103.897 129.801 102.25H129.401ZM128.807 97.7101C129.203 99.123 129.401 100.636 129.401 102.25H129.801C129.801 100.603 129.599 99.0535 129.193 97.6023L128.807 97.7101ZM127.005 94.0273C127.811 95.0736 128.413 96.3002 128.807 97.7101L129.193 97.6023C128.786 96.148 128.163 94.8741 127.322 93.7832L127.005 94.0273ZM123.893 91.5578C125.166 92.1621 126.203 92.9855 127.005 94.0273L127.322 93.7832C126.478 92.688 125.391 91.8259 124.065 91.1964L123.893 91.5578ZM119.364 90.6518C121.118 90.6518 122.625 90.9563 123.893 91.5578L124.065 91.1964C122.732 90.5642 121.163 90.2518 119.364 90.2518V90.6518ZM110.744 90.6518H119.364V90.2518H110.744V90.6518ZM113.554 110.477C113.388 110.477 113.254 110.343 113.254 110.177H112.854C112.854 110.564 113.167 110.877 113.554 110.877V110.477ZM117.564 110.477H113.554V110.877H117.564V110.477ZM121.875 109.846C120.769 110.264 119.335 110.477 117.564 110.477V110.877C119.363 110.877 120.85 110.661 122.017 110.22L121.875 109.846ZM124.471 108.118C123.849 108.848 122.988 109.425 121.875 109.846L122.017 110.22C123.178 109.781 124.101 109.169 124.775 108.378L124.471 108.118ZM125.748 105.527C125.523 106.522 125.097 107.384 124.471 108.118L124.775 108.378C125.445 107.592 125.899 106.67 126.138 105.615L125.748 105.527ZM126.092 102.25C126.092 103.427 125.977 104.519 125.748 105.527L126.138 105.615C126.374 104.575 126.492 103.453 126.492 102.25H126.092ZM125.748 98.9728C125.977 99.981 126.092 101.073 126.092 102.25H126.492C126.492 101.047 126.374 99.9251 126.138 98.8843L125.748 98.9728ZM124.471 96.3814C125.097 97.1156 125.523 97.9781 125.748 98.9728L126.138 98.8843C125.899 97.83 125.445 96.9079 124.775 96.1219L124.471 96.3814ZM121.875 94.6542C122.988 95.0744 123.849 95.652 124.471 96.3814L124.775 96.1219C124.101 95.3311 123.178 94.719 122.017 94.28L121.875 94.6542ZM117.564 94.0227C119.335 94.0227 120.769 94.2361 121.875 94.6542L122.017 94.28C120.85 93.8388 119.363 93.6227 117.564 93.6227V94.0227ZM113.554 94.0227H117.564V93.6227H113.554V94.0227ZM113.254 94.3227C113.254 94.157 113.388 94.0227 113.554 94.0227V93.6227C113.167 93.6227 112.854 93.9361 112.854 94.3227H113.254ZM113.254 110.177V94.3227H112.854V110.177H113.254Z" fill="#FEDB41"/>
<rect x="109.744" y="100.564" width="6.61906" height="3.37088" rx="0.75" fill="#FEDB41" stroke="#FEDB41" stroke-width="0.4"/>
<path d="M106.434 91.2018C106.434 90.7876 106.77 90.4518 107.184 90.4518H113.054V93.8227H107.184C106.77 93.8227 106.434 93.4869 106.434 93.0727V91.2018Z" fill="#FEDB41" stroke="#FEDB41" stroke-width="0.4"/>
<path d="M106.434 111.427C106.434 111.013 106.77 110.677 107.184 110.677H113.054V114.048H107.184C106.77 114.048 106.434 113.712 106.434 113.298V111.427Z" fill="#FEDB41" stroke="#FEDB41" stroke-width="0.4"/>
<path d="M180.109 113.72C159.695 113.72 142.821 130.547 142.821 151.261C142.821 171.975 159.695 189.097 180.109 189.097C200.522 189.097 217.106 171.975 217.106 151.261C217.106 130.547 200.522 113.72 180.109 113.72Z" fill="#FEDB41"/>
<path d="M180.115 121.258C163.833 121.258 150.25 134.733 150.25 151.255C150.25 167.776 163.833 181.559 180.115 181.559C196.397 181.559 209.677 167.776 209.677 151.255C209.677 134.733 196.397 121.258 180.115 121.258Z" fill="#FEA832"/>
<path fill-rule="evenodd" clip-rule="evenodd" d="M170.351 136.333C169.799 136.333 169.351 136.781 169.351 137.333V165.484C169.351 166.036 169.799 166.484 170.351 166.484H181.69C183.969 166.484 185.942 166.09 187.609 165.301C189.276 164.513 190.638 163.436 191.694 162.071C192.75 160.706 193.535 159.108 194.049 157.278C194.563 155.448 194.82 153.492 194.82 151.408C194.82 149.325 194.563 147.369 194.049 145.539C193.535 143.709 192.75 142.111 191.694 140.746C190.638 139.381 189.276 138.304 187.609 137.516C185.942 136.727 183.969 136.333 181.69 136.333H170.351ZM173.596 161.677C173.596 161.953 173.82 162.177 174.096 162.177H179.381C181.67 162.177 183.544 161.902 185.002 161.353C186.46 160.804 187.605 160.044 188.436 159.073C189.266 158.102 189.831 156.961 190.129 155.652C190.427 154.343 190.576 152.929 190.576 151.408C190.576 149.888 190.427 148.474 190.129 147.165C189.831 145.855 189.266 144.715 188.436 143.744C187.605 142.773 186.46 142.013 185.002 141.464C183.544 140.915 181.67 140.64 179.381 140.64H174.096C173.82 140.64 173.596 140.864 173.596 141.14V161.677Z" fill="#FEDB41"/>
<path d="M187.609 165.301L187.524 165.121L187.609 165.301ZM191.694 162.071L191.536 161.949H191.536L191.694 162.071ZM194.049 145.539L194.242 145.485L194.049 145.539ZM191.694 140.746L191.536 140.868H191.536L191.694 140.746ZM187.609 137.516L187.695 137.335L187.609 137.516ZM185.002 161.353L185.073 161.54L185.002 161.353ZM190.129 155.652L189.934 155.608L190.129 155.652ZM190.129 147.165L189.934 147.209L190.129 147.165ZM188.436 143.744L188.284 143.874L188.436 143.744ZM185.002 141.464L185.073 141.277L185.002 141.464ZM169.551 137.333C169.551 136.891 169.91 136.533 170.351 136.533V136.133C169.689 136.133 169.151 136.67 169.151 137.333H169.551ZM169.551 165.484V137.333H169.151V165.484H169.551ZM170.351 166.284C169.91 166.284 169.551 165.926 169.551 165.484H169.151C169.151 166.146 169.689 166.684 170.351 166.684V166.284ZM181.69 166.284H170.351V166.684H181.69V166.284ZM187.524 165.121C185.888 165.894 183.946 166.284 181.69 166.284V166.684C183.991 166.684 185.995 166.286 187.695 165.482L187.524 165.121ZM191.536 161.949C190.501 163.287 189.164 164.345 187.524 165.121L187.695 165.482C189.388 164.681 190.776 163.585 191.852 162.193L191.536 161.949ZM193.857 157.224C193.349 159.032 192.575 160.606 191.536 161.949L191.852 162.193C192.926 160.806 193.721 159.184 194.242 157.332L193.857 157.224ZM194.62 151.408C194.62 153.475 194.365 155.413 193.857 157.224L194.242 157.332C194.761 155.483 195.02 153.508 195.02 151.408H194.62ZM193.857 145.593C194.365 147.404 194.62 149.342 194.62 151.408H195.02C195.02 149.309 194.761 147.334 194.242 145.485L193.857 145.593ZM191.536 140.868C192.575 142.211 193.349 143.785 193.857 145.593L194.242 145.485C193.721 143.633 192.926 142.011 191.852 140.624L191.536 140.868ZM187.524 137.696C189.164 138.472 190.501 139.53 191.536 140.868L191.852 140.624C190.776 139.232 189.388 138.135 187.695 137.335L187.524 137.696ZM181.69 136.533C183.946 136.533 185.888 136.923 187.524 137.696L187.695 137.335C185.995 136.531 183.991 136.133 181.69 136.133V136.533ZM170.351 136.533H181.69V136.133H170.351V136.533ZM174.096 161.977C173.931 161.977 173.796 161.842 173.796 161.677H173.396C173.396 162.063 173.71 162.377 174.096 162.377V161.977ZM179.381 161.977H174.096V162.377H179.381V161.977ZM184.932 161.166C183.504 161.703 181.657 161.977 179.381 161.977V162.377C181.684 162.377 183.584 162.101 185.073 161.54L184.932 161.166ZM188.284 158.943C187.479 159.883 186.365 160.626 184.932 161.166L185.073 161.54C186.555 160.982 187.73 160.205 188.588 159.203L188.284 158.943ZM189.934 155.608C189.643 156.887 189.092 157.997 188.284 158.943L188.588 159.203C189.441 158.206 190.019 157.036 190.324 155.697L189.934 155.608ZM190.376 151.408C190.376 152.916 190.228 154.315 189.934 155.608L190.324 155.697C190.625 154.371 190.776 152.942 190.776 151.408H190.376ZM189.934 147.209C190.228 148.502 190.376 149.901 190.376 151.408H190.776C190.776 149.875 190.625 148.446 190.324 147.12L189.934 147.209ZM188.284 143.874C189.092 144.819 189.643 145.93 189.934 147.209L190.324 147.12C190.019 145.781 189.441 144.611 188.588 143.614L188.284 143.874ZM184.932 141.651C186.365 142.191 187.479 142.934 188.284 143.874L188.588 143.614C187.73 142.612 186.555 141.835 185.073 141.277L184.932 141.651ZM179.381 140.84C181.657 140.84 183.504 141.113 184.932 141.651L185.073 141.277C183.584 140.716 181.684 140.44 179.381 140.44V140.84ZM174.096 140.84H179.381V140.44H174.096V140.84ZM173.796 141.14C173.796 140.975 173.931 140.84 174.096 140.84V140.44C173.71 140.44 173.396 140.754 173.396 141.14H173.796ZM173.796 161.677V141.14H173.396V161.677H173.796Z" fill="#FEDB41"/>
<rect x="169.351" y="149.255" width="8.48967" height="4.30723" rx="0.75" fill="#FEDB41" stroke="#FEDB41" stroke-width="0.4"/>
<path d="M165.107 137.083C165.107 136.669 165.442 136.333 165.857 136.333H173.596V140.64H165.857C165.442 140.64 165.107 140.305 165.107 139.89V137.083Z" fill="#FEDB41" stroke="#FEDB41" stroke-width="0.4"/>
<path d="M165.107 162.927C165.107 162.512 165.442 162.177 165.857 162.177H173.596V166.484H165.857C165.442 166.484 165.107 166.148 165.107 165.734V162.927Z" fill="#FEDB41" stroke="#FEDB41" stroke-width="0.4"/>
<path d="M130.803 113.72C110.39 113.72 93.5159 130.547 93.5159 151.261C93.5159 171.975 110.39 189.097 130.803 189.097C151.217 189.097 167.8 171.975 167.8 151.261C167.8 130.547 151.217 113.72 130.803 113.72Z" fill="#FEDB41"/>
<path d="M130.81 121.258C114.527 121.258 100.944 134.733 100.944 151.255C100.944 167.776 114.527 181.559 130.81 181.559C147.092 181.559 160.372 167.776 160.372 151.255C160.372 134.733 147.092 121.258 130.81 121.258Z" fill="#FEA832"/>
<path fill-rule="evenodd" clip-rule="evenodd" d="M121.046 136.333C120.494 136.333 120.046 136.781 120.046 137.333V165.484C120.046 166.036 120.494 166.484 121.046 166.484H132.385C134.663 166.484 136.636 166.09 138.304 165.301C139.971 164.513 141.333 163.436 142.389 162.071C143.445 160.706 144.23 159.108 144.744 157.278C145.258 155.448 145.515 153.492 145.515 151.408C145.515 149.325 145.258 147.369 144.744 145.539C144.23 143.709 143.445 142.111 142.389 140.746C141.333 139.381 139.971 138.304 138.304 137.516C136.636 136.727 134.663 136.333 132.385 136.333H121.046ZM124.291 161.677C124.291 161.953 124.515 162.177 124.791 162.177H130.076C132.365 162.177 134.239 161.902 135.697 161.353C137.155 160.804 138.299 160.044 139.13 159.073C139.961 158.102 140.526 156.961 140.823 155.652C141.121 154.343 141.27 152.929 141.27 151.408C141.27 149.888 141.121 148.474 140.823 147.165C140.526 145.855 139.961 144.715 139.13 143.744C138.299 142.773 137.155 142.013 135.697 141.464C134.239 140.915 132.365 140.64 130.076 140.64H124.791C124.515 140.64 124.291 140.864 124.291 141.14V161.677Z" fill="#FEDB41"/>
<path d="M138.304 165.301L138.218 165.121L138.304 165.301ZM144.744 145.539L144.937 145.485L144.744 145.539ZM142.389 140.746L142.547 140.624L142.389 140.746ZM138.304 137.516L138.218 137.696L138.304 137.516ZM139.13 159.073L138.978 158.943L139.13 159.073ZM140.823 155.652L140.628 155.608L140.823 155.652ZM140.823 147.165L140.628 147.209L140.823 147.165ZM139.13 143.744L138.978 143.874L139.13 143.744ZM135.697 141.464L135.767 141.277L135.697 141.464ZM120.246 137.333C120.246 136.891 120.604 136.533 121.046 136.533V136.133C120.383 136.133 119.846 136.67 119.846 137.333H120.246ZM120.246 165.484V137.333H119.846V165.484H120.246ZM121.046 166.284C120.604 166.284 120.246 165.926 120.246 165.484H119.846C119.846 166.146 120.383 166.684 121.046 166.684V166.284ZM132.385 166.284H121.046V166.684H132.385V166.284ZM138.218 165.121C136.583 165.894 134.641 166.284 132.385 166.284V166.684C134.686 166.684 136.69 166.286 138.389 165.482L138.218 165.121ZM142.231 161.949C141.195 163.287 139.859 164.345 138.218 165.121L138.389 165.482C140.083 164.681 141.47 163.585 142.547 162.193L142.231 161.949ZM144.551 157.224C144.044 159.032 143.269 160.606 142.231 161.949L142.547 162.193C143.62 160.806 144.416 159.184 144.937 157.332L144.551 157.224ZM145.315 151.408C145.315 153.475 145.06 155.413 144.551 157.224L144.937 157.332C145.456 155.483 145.715 153.508 145.715 151.408H145.315ZM144.551 145.593C145.06 147.404 145.315 149.342 145.315 151.408H145.715C145.715 149.309 145.456 147.334 144.937 145.485L144.551 145.593ZM142.231 140.868C143.269 142.211 144.044 143.785 144.551 145.593L144.937 145.485C144.416 143.633 143.62 142.011 142.547 140.624L142.231 140.868ZM138.218 137.696C139.859 138.472 141.195 139.53 142.231 140.868L142.547 140.624C141.47 139.232 140.083 138.135 138.389 137.335L138.218 137.696ZM132.385 136.533C134.641 136.533 136.583 136.923 138.218 137.696L138.389 137.335C136.69 136.531 134.686 136.133 132.385 136.133V136.533ZM121.046 136.533H132.385V136.133H121.046V136.533ZM124.791 161.977C124.625 161.977 124.491 161.842 124.491 161.677H124.091C124.091 162.063 124.404 162.377 124.791 162.377V161.977ZM130.076 161.977H124.791V162.377H130.076V161.977ZM135.626 161.166C134.199 161.703 132.351 161.977 130.076 161.977V162.377C132.379 162.377 134.279 162.101 135.767 161.54L135.626 161.166ZM138.978 158.943C138.174 159.883 137.06 160.626 135.626 161.166L135.767 161.54C137.25 160.982 138.425 160.205 139.282 159.203L138.978 158.943ZM140.628 155.608C140.337 156.887 139.787 157.997 138.978 158.943L139.282 159.203C140.135 158.206 140.714 157.036 141.019 155.697L140.628 155.608ZM141.07 151.408C141.07 152.916 140.923 154.315 140.628 155.608L141.019 155.697C141.32 154.371 141.47 152.942 141.47 151.408H141.07ZM140.628 147.209C140.923 148.502 141.07 149.901 141.07 151.408H141.47C141.47 149.875 141.32 148.446 141.019 147.12L140.628 147.209ZM138.978 143.874C139.787 144.819 140.337 145.93 140.628 147.209L141.019 147.12C140.714 145.781 140.135 144.611 139.282 143.614L138.978 143.874ZM135.626 141.651C137.06 142.191 138.174 142.934 138.978 143.874L139.282 143.614C138.425 142.612 137.25 141.835 135.767 141.277L135.626 141.651ZM130.076 140.84C132.351 140.84 134.199 141.113 135.626 141.651L135.767 141.277C134.279 140.716 132.379 140.44 130.076 140.44V140.84ZM124.791 140.84H130.076V140.44H124.791V140.84ZM124.491 141.14C124.491 140.975 124.625 140.84 124.791 140.84V140.44C124.404 140.44 124.091 140.754 124.091 141.14H124.491ZM124.491 161.677V141.14H124.091V161.677H124.491Z" fill="#FEDB41"/>
<rect x="120.046" y="149.255" width="8.48967" height="4.30723" rx="0.75" fill="#FEDB41" stroke="#FEDB41" stroke-width="0.4"/>
<path d="M115.801 137.083C115.801 136.669 116.137 136.333 116.551 136.333H124.291V140.64H116.551C116.137 140.64 115.801 140.305 115.801 139.89V137.083Z" fill="#FEDB41" stroke="#FEDB41" stroke-width="0.4"/>
<path d="M115.801 162.927C115.801 162.512 116.137 162.177 116.551 162.177H124.291V166.484H116.551C116.137 166.484 115.801 166.148 115.801 165.734V162.927Z" fill="#FEDB41" stroke="#FEDB41" stroke-width="0.4"/>
<g filter="url(#filter_coins)">
<path d="M70.8884 71.2214C38.5268 71.2214 11.7764 97.5597 11.7764 129.981C11.7764 162.403 38.5268 189.202 70.8884 189.202C103.25 189.202 129.54 162.403 129.54 129.981C129.54 97.5597 103.25 71.2214 70.8884 71.2214Z" fill="#FEDB41"/>
<path d="M70.8987 83.0195C45.0863 83.0195 23.5527 104.111 23.5527 129.971C23.5527 155.831 45.0863 177.404 70.8987 177.404C96.7112 177.404 117.764 155.831 117.764 129.971C117.764 104.111 96.7112 83.0195 70.8987 83.0195Z" fill="#FEA832"/>
<path fill-rule="evenodd" clip-rule="evenodd" d="M54.835 106.616C54.2827 106.616 53.835 107.063 53.835 107.616V152.808C53.835 153.36 54.2827 153.808 54.835 153.808H73.3953C77.0078 153.808 80.1357 153.191 82.779 151.957C85.4223 150.723 87.581 149.038 89.2551 146.901C90.9292 144.764 92.1737 142.263 92.9887 139.399C93.8037 136.535 94.2112 133.472 94.2112 130.212C94.2112 126.951 93.8037 123.889 92.9887 121.024C92.1737 118.16 90.9292 115.66 89.2551 113.523C87.581 111.385 85.4223 109.7 82.779 108.466C80.1357 107.232 77.0078 106.616 73.3953 106.616H54.835ZM60.5643 146.566C60.5643 146.842 60.7882 147.066 61.0643 147.066H69.7357C73.3645 147.066 76.3346 146.636 78.646 145.777C80.9575 144.918 82.7719 143.728 84.0892 142.208C85.4065 140.688 86.3013 138.903 86.7735 136.854C87.2457 134.805 87.4819 132.591 87.4819 130.212C87.4819 127.832 87.2457 125.618 86.7735 123.569C86.3013 121.52 85.4065 119.736 84.0892 118.215C82.7719 116.695 80.9575 115.505 78.646 114.646C76.3346 113.787 73.3645 113.357 69.7357 113.357H61.0643C60.7882 113.357 60.5643 113.581 60.5643 113.857V146.566Z" fill="#FEDB41"/>
<path d="M82.779 151.957L82.6944 151.776L82.779 151.957ZM89.2551 146.901L89.4125 147.024L89.2551 146.901ZM92.9887 139.399L92.7963 139.344L92.9887 139.399ZM92.9887 121.024L92.7963 121.079V121.079L92.9887 121.024ZM89.2551 113.523L89.4125 113.399L89.2551 113.523ZM78.646 145.777L78.5764 145.59L78.646 145.777ZM84.0892 142.208L83.9381 142.077L84.0892 142.208ZM86.7735 136.854L86.9684 136.899L86.7735 136.854ZM86.7735 123.569L86.9684 123.524L86.7735 123.569ZM84.0892 118.215L83.9381 118.346L84.0892 118.215ZM78.646 114.646L78.7157 114.459L78.646 114.646ZM54.035 107.616C54.035 107.174 54.3931 106.816 54.835 106.816V106.416C54.1722 106.416 53.635 106.953 53.635 107.616H54.035ZM54.035 152.808V107.616H53.635V152.808H54.035ZM54.835 153.608C54.3931 153.608 54.035 153.25 54.035 152.808H53.635C53.635 153.471 54.1722 154.008 54.835 154.008V153.608ZM73.3953 153.608H54.835V154.008H73.3953V153.608ZM82.6944 151.776C80.0831 152.995 76.9854 153.608 73.3953 153.608V154.008C77.0303 154.008 80.1883 153.387 82.8636 152.138L82.6944 151.776ZM89.0976 146.778C87.4443 148.888 85.3114 150.554 82.6944 151.776L82.8636 152.138C85.5332 150.892 87.7176 149.188 89.4125 147.024L89.0976 146.778ZM92.7963 139.344C91.9877 142.186 90.7543 144.663 89.0976 146.778L89.4125 147.024C91.1041 144.865 92.3597 142.34 93.1811 139.454L92.7963 139.344ZM94.0112 130.212C94.0112 133.456 93.6058 136.5 92.7963 139.344L93.1811 139.454C94.0016 136.57 94.4112 133.489 94.4112 130.212H94.0112ZM92.7963 121.079C93.6058 123.924 94.0112 126.968 94.0112 130.212H94.4112C94.4112 126.934 94.0016 123.853 93.1811 120.97L92.7963 121.079ZM89.0976 113.646C90.7543 115.761 91.9877 118.238 92.7963 121.079L93.1811 120.97C92.3597 118.083 91.1041 115.559 89.4125 113.399L89.0976 113.646ZM82.6944 108.648C85.3114 109.869 87.4443 111.535 89.0976 113.646L89.4125 113.399C87.7176 111.236 85.5332 109.531 82.8636 108.285L82.6944 108.648ZM73.3953 106.816C76.9854 106.816 80.0831 107.429 82.6944 108.648L82.8636 108.285C80.1883 107.036 77.0303 106.416 73.3953 106.416V106.816ZM54.835 106.816H73.3953V106.416H54.835V106.816ZM61.0643 146.866C60.8987 146.866 60.7643 146.732 60.7643 146.566H60.3643C60.3643 146.953 60.6777 147.266 61.0643 147.266V146.866ZM69.7357 146.866H61.0643V147.266H69.7357V146.866ZM78.5764 145.59C76.295 146.438 73.3509 146.866 69.7357 146.866V147.266C73.3781 147.266 76.3741 146.835 78.7157 145.965L78.5764 145.59ZM83.9381 142.077C82.6472 143.567 80.8634 144.74 78.5764 145.59L78.7157 145.965C81.0516 145.096 82.8966 143.89 84.2403 142.339L83.9381 142.077ZM86.5786 136.809C86.1134 138.828 85.233 140.583 83.9381 142.077L84.2403 142.339C85.58 140.793 86.4892 138.979 86.9684 136.899L86.5786 136.809ZM87.2819 130.212C87.2819 132.578 87.047 134.777 86.5786 136.809L86.9684 136.899C87.4444 134.834 87.6819 132.604 87.6819 130.212H87.2819ZM86.5786 123.614C87.047 125.646 87.2819 127.845 87.2819 130.212H87.6819C87.6819 127.819 87.4444 125.59 86.9684 123.524L86.5786 123.614ZM83.9381 118.346C85.233 119.841 86.1134 121.595 86.5786 123.614L86.9684 123.524C86.4892 121.445 85.58 119.63 84.2403 118.084L83.9381 118.346ZM78.5764 114.834C80.8634 115.684 82.6472 116.857 83.9381 118.346L84.2403 118.084C82.8966 116.534 81.0516 115.327 78.7157 114.459L78.5764 114.834ZM69.7357 113.557C73.3509 113.557 76.2951 113.986 78.5764 114.834L78.7157 114.459C76.3741 113.588 73.3781 113.157 69.7357 113.157V113.557ZM61.0643 113.557H69.7357V113.157H61.0643V113.557ZM60.7643 113.857C60.7643 113.692 60.8987 113.557 61.0643 113.557V113.157C60.6777 113.157 60.3643 113.471 60.3643 113.857H60.7643ZM60.7643 146.566V113.857H60.3643V146.566H60.7643Z" fill="#FEDB41"/>
<rect x="53.835" y="126.841" width="13.4588" height="6.74175" rx="0.75" fill="#FEDB41" stroke="#FEDB41" stroke-width="0.4"/>
<path d="M47.1056 107.366C47.1056 106.951 47.4414 106.616 47.8556 106.616H60.5644V113.357H47.8556C47.4414 113.357 47.1056 113.022 47.1056 112.607V107.366Z" fill="#FEDB41" stroke="#FEDB41" stroke-width="0.4"/>
<path d="M47.1056 147.816C47.1056 147.402 47.4414 147.066 47.8556 147.066H60.5644V153.808H47.8556C47.4414 153.808 47.1056 153.472 47.1056 153.058V147.816Z" fill="#FEDB41" stroke="#FEDB41" stroke-width="0.4"/>
</g>
<g clip-path="url(#clip_coins)">
<path d="M78.1062 29.8483C76.6623 29.5857 75.2635 29.2279 73.9486 28.7848C64.3095 25.5374 58.8606 17.6475 57.0678 7.49052C56.8976 6.52829 55.5121 6.52816 55.3419 7.49052C53.2583 19.2929 46.3238 27.6393 34.3633 29.8633C33.4121 30.0401 33.4123 31.4134 34.3638 31.5898C46.2139 33.7857 53.2697 42.1163 55.3462 53.8245C55.4769 54.5621 56.2544 54.5659 56.21 54.5488C56.6351 54.5483 56.9987 54.242 57.0721 53.8227C58.1293 47.7849 61.0973 39.582 69.2347 34.7927C71.8343 33.2642 74.8199 32.1819 78.1082 31.5757C78.5243 31.499 78.8265 31.1352 78.8259 30.7112C78.8254 30.2871 78.5225 29.924 78.1062 29.8483Z" fill="#F4A32C"/>
<path d="M78.1062 29.8483C76.6623 29.5857 75.2635 29.2279 73.9486 28.7848C64.3095 25.5374 58.8606 17.6475 57.0678 7.49052C56.8976 6.52829 55.5121 6.52816 55.3419 7.49052C53.2583 19.2929 46.3238 27.6393 34.3633 29.8633C33.4121 30.0401 33.4123 31.4134 34.3638 31.5898C46.2139 33.7857 53.2697 42.1163 55.3462 53.8245C55.4769 54.5621 56.2544 54.5659 56.21 54.5488C56.6351 54.5483 56.9987 54.242 57.0721 53.8227C58.1293 47.7849 61.0973 39.582 69.2347 34.7927C71.8343 33.2642 74.8199 32.1819 78.1082 31.5757C78.5243 31.499 78.8265 31.1352 78.8259 30.7112C78.8254 30.2871 78.5225 29.924 78.1062 29.8483Z" fill="#FEDB41"/>
<path d="M39.611 52.6244C36.2013 51.4915 33.9458 48.9458 32.8483 45.4275C32.6511 44.7959 31.9865 44.8028 32.0118 44.8115C31.6287 44.8115 31.29 45.061 31.1756 45.427C30.1123 48.8274 27.8871 51.4291 24.4127 52.6208C23.6253 52.891 23.6246 54.0116 24.4128 54.282C27.8647 55.4659 30.1043 58.047 31.1766 61.4796C31.3745 62.1126 32.0379 62.1034 32.0145 62.0953C32.3983 62.0946 32.7369 61.8439 32.8503 61.4766C33.6433 58.9072 35.0422 56.9206 37.0082 55.572C37.0083 55.5719 37.0083 55.5719 37.0083 55.5719C39.1577 54.0966 40.2129 54.5247 40.2114 53.4563C40.211 53.0784 39.9691 52.7433 39.611 52.6244Z" fill="#F7E7A1"/>
<path d="M27.8836 12.5732C24.4604 11.4359 22.2146 8.88035 21.1208 5.3763C20.9237 4.7447 20.2592 4.75175 20.2844 4.76037C19.9013 4.76037 19.5626 5.00977 19.4481 5.37578C18.3871 8.76909 16.1666 11.3752 12.6853 12.5698C11.8979 12.84 11.8971 13.9606 12.6854 14.231C16.1458 15.4178 18.3796 18.0051 19.4492 21.4285C19.647 22.0615 20.3107 22.0524 20.287 22.0441C20.6707 22.0435 21.0094 21.7928 21.1228 21.4257C22.4357 17.1719 25.0796 15.7206 25.2811 15.521C27.4244 14.0496 28.4855 14.468 28.4841 13.4054C28.4834 13.0272 28.2415 12.6922 27.8836 12.5732Z" fill="#F4D44E"/>
</g>
<path d="M281.366 79.1701C280.502 79.0129 279.664 78.7987 278.876 78.5334C273.105 76.5888 269.842 71.8643 268.768 65.7823C268.666 65.2061 267.837 65.206 267.735 65.7823C266.487 72.8496 262.335 77.8474 255.173 79.1791C254.603 79.285 254.603 80.1073 255.173 80.213C262.269 81.5279 266.494 86.5163 267.737 93.5272C267.816 93.9689 268.281 93.9712 268.255 93.9609C268.509 93.9606 268.727 93.7772 268.771 93.5261C269.404 89.9107 271.181 84.9988 276.054 82.1309C277.61 81.2156 279.398 80.5676 281.367 80.2045C281.616 80.1586 281.797 79.9408 281.797 79.6869C281.797 79.4329 281.615 79.2155 281.366 79.1701Z" fill="#FEDB41"/>
<path d="M248.64 60.5052C245.015 59.301 242.637 56.5951 241.479 52.8849C241.271 52.2162 240.567 52.2236 240.594 52.2328C240.188 52.2328 239.829 52.4968 239.708 52.8844C238.585 56.4773 236.234 59.2367 232.548 60.5016C231.714 60.7877 231.713 61.9742 232.548 62.2605C236.212 63.5172 238.577 66.2566 239.709 69.8813C239.919 70.5516 240.622 70.5419 240.596 70.5332C241.003 70.5325 241.361 70.2671 241.481 69.8784C242.872 65.3744 245.671 63.8378 245.884 63.6264C248.154 62.0685 249.277 62.5115 249.276 61.3863C249.275 60.9859 249.019 60.6311 248.64 60.5052Z" fill="#F4D44E"/>
<defs>
<filter id="filter_coins" x="-7" y="54.4233" width="155.317" height="155.577" filterUnits="userSpaceOnUse" color-interpolation-filters="sRGB">
<feFlood flood-opacity="0" result="BackgroundImageFix"/>
<feColorMatrix in="SourceAlpha" type="matrix" values="0 0 0 0 0 0 0 0 0 0 0 0 0 0 0 0 0 0 127 0"/>
<feOffset dy="2"/>
<feGaussianBlur stdDeviation="3.5"/>
<feColorMatrix type="matrix" values="0 0 0 0 0.9 0 0 0 0 0.595276 0 0 0 0 0.177165 0 0 0 0.585418 0"/>
<feBlend mode="normal" in2="BackgroundImageFix" result="effect1_dropShadow"/>
<feBlend mode="normal" in="SourceGraphic" in2="effect1_dropShadow" result="shape"/>
</filter>
<clipPath id="clip_coins">
<rect width="66.733" height="66.8557" fill="white" transform="translate(12.0929)"/>
</clipPath>
</defs>
</svg>
