<svg width="52" height="54" viewBox="0 0 52 54" fill="none" xmlns="http://www.w3.org/2000/svg">
<g filter="url(#filter0_f)">
<path fill-rule="evenodd" clip-rule="evenodd" d="M26.0683 45.7218C35.536 45.7218 43.2111 44.4938 43.2111 42.9789C43.2111 41.4641 35.536 40.2361 26.0683 40.2361C16.6005 40.2361 8.92542 41.4641 8.92542 42.9789C8.92542 44.4938 16.6005 45.7218 26.0683 45.7218Z" fill="#E6982D" fill-opacity="0.53"/>
</g>
<path d="M24.7751 4.46472C13.7831 4.46472 4.69702 13.3944 4.69702 24.3866C4.69702 35.3788 13.7831 44.4647 24.7751 44.4647C35.7672 44.4647 44.697 35.3788 44.697 24.3866C44.697 13.3944 35.7672 4.46472 24.7751 4.46472Z" fill="#FEDB41"/>
<path d="M24.7787 8.46472C16.0111 8.46472 8.69702 15.6157 8.69702 24.3831C8.69702 33.1505 16.0111 40.4647 24.7787 40.4647C33.5462 40.4647 40.697 33.1505 40.697 24.3831C40.697 15.6157 33.5462 8.46472 24.7787 8.46472Z" fill="#FEA832"/>
<path fill-rule="evenodd" clip-rule="evenodd" d="M19.9829 16.4647C19.4306 16.4647 18.9829 16.9124 18.9829 17.4647V31.4647C18.9829 32.017 19.4306 32.4647 19.9829 32.4647H25.6268C26.8539 32.4647 27.9163 32.2556 28.8141 31.8373C29.7119 31.419 30.4451 30.8475 31.0138 30.123C31.5824 29.3984 32.0051 28.5506 32.2819 27.5796C32.5588 26.6085 32.6972 25.5702 32.6972 24.4647C32.6972 23.3592 32.5588 22.3209 32.2819 21.3499C32.0051 20.3788 31.5824 19.531 31.0138 18.8065C30.4451 18.0819 29.7119 17.5105 28.8141 17.0922C27.9163 16.6739 26.8539 16.4647 25.6268 16.4647H19.9829ZM21.2687 29.679C21.2687 29.9551 21.4926 30.179 21.7687 30.179H24.3839C25.6165 30.179 26.6253 30.0333 27.4104 29.742C28.1955 29.4507 28.8118 29.0473 29.2592 28.5319C29.7067 28.0165 30.0106 27.4115 30.171 26.7168C30.3314 26.0221 30.4116 25.2714 30.4116 24.4647C30.4116 23.658 30.3314 22.9073 30.171 22.2126C30.0106 21.5179 29.7067 20.9129 29.2592 20.3975C28.8118 19.8821 28.1955 19.4787 27.4104 19.1874C26.6253 18.8961 25.6165 18.7504 24.3839 18.7504H21.7687C21.4926 18.7504 21.2687 18.9743 21.2687 19.2504V29.679Z" fill="#FEDB41"/>
<path d="M28.8141 31.8373L28.7296 31.656H28.7296L28.8141 31.8373ZM31.0138 30.123L30.8564 29.9995L31.0138 30.123ZM32.2819 21.3499L32.4743 21.295L32.2819 21.3499ZM31.0138 18.8065L30.8564 18.9299L31.0138 18.8065ZM28.8141 17.0922L28.7296 17.2735H28.7296L28.8141 17.0922ZM27.4104 29.742L27.3408 29.5545L27.4104 29.742ZM30.171 26.7168L29.9761 26.6718L30.171 26.7168ZM30.171 22.2126L29.9761 22.2576V22.2576L30.171 22.2126ZM29.2592 20.3975L29.1082 20.5286V20.5286L29.2592 20.3975ZM27.4104 19.1874L27.3408 19.3749L27.4104 19.1874ZM19.1829 17.4647C19.1829 17.0229 19.5411 16.6647 19.9829 16.6647V16.2647C19.3202 16.2647 18.7829 16.802 18.7829 17.4647H19.1829ZM19.1829 31.4647V17.4647H18.7829V31.4647H19.1829ZM19.9829 32.2647C19.5411 32.2647 19.1829 31.9065 19.1829 31.4647H18.7829C18.7829 32.1275 19.3202 32.6647 19.9829 32.6647V32.2647ZM25.6268 32.2647H19.9829V32.6647H25.6268V32.2647ZM28.7296 31.656C27.8638 32.0594 26.8315 32.2647 25.6268 32.2647V32.6647C26.8762 32.6647 27.9687 32.4518 28.8986 32.0186L28.7296 31.656ZM30.8564 29.9995C30.3087 30.6975 29.6012 31.2499 28.7296 31.656L28.8986 32.0186C29.8227 31.588 30.5816 30.9976 31.1711 30.2465L30.8564 29.9995ZM32.0896 27.5247C31.8192 28.4733 31.4076 29.2972 30.8564 29.9995L31.1711 30.2465C31.7572 29.4996 32.191 28.628 32.4743 27.6344L32.0896 27.5247ZM32.4972 24.4647C32.4972 25.5534 32.3609 26.5731 32.0896 27.5247L32.4743 27.6344C32.7567 26.6439 32.8972 25.587 32.8972 24.4647H32.4972ZM32.0896 21.4047C32.3609 22.3563 32.4972 23.376 32.4972 24.4647H32.8972C32.8972 23.3424 32.7567 22.2855 32.4743 21.295L32.0896 21.4047ZM30.8564 18.9299C31.4076 19.6322 31.8192 20.4562 32.0896 21.4047L32.4743 21.295C32.191 20.3015 31.7572 19.4298 31.1711 18.683L30.8564 18.9299ZM28.7296 17.2735C29.6012 17.6795 30.3087 18.2319 30.8564 18.9299L31.1711 18.683C30.5816 17.9319 29.8227 17.3414 28.8986 16.9109L28.7296 17.2735ZM25.6268 16.6647C26.8315 16.6647 27.8638 16.8701 28.7296 17.2735L28.8986 16.9109C27.9687 16.4777 26.8762 16.2647 25.6268 16.2647V16.6647ZM19.9829 16.6647H25.6268V16.2647H19.9829V16.6647ZM21.7687 29.979C21.6031 29.979 21.4687 29.8447 21.4687 29.679H21.0687C21.0687 30.0656 21.3821 30.379 21.7687 30.379V29.979ZM24.3839 29.979H21.7687V30.379H24.3839V29.979ZM27.3408 29.5545C26.5859 29.8346 25.6029 29.979 24.3839 29.979V30.379C25.63 30.379 26.6647 30.232 27.48 29.9295L27.3408 29.5545ZM29.1082 28.4008C28.6872 28.8857 28.1016 29.2722 27.3408 29.5545L27.48 29.9295C28.2895 29.6291 28.9364 29.2089 29.4103 28.663L29.1082 28.4008ZM29.9761 26.6718C29.8227 27.3361 29.5333 27.9112 29.1082 28.4008L29.4103 28.663C29.8801 28.1218 30.1985 27.4869 30.3659 26.7618L29.9761 26.6718ZM30.2116 24.4647C30.2116 25.2582 30.1327 25.9937 29.9761 26.6718L30.3659 26.7618C30.5301 26.0506 30.6116 25.2846 30.6116 24.4647H30.2116ZM29.9761 22.2576C30.1327 22.9357 30.2116 23.6712 30.2116 24.4647H30.6116C30.6116 23.6448 30.5301 22.8788 30.3659 22.1676L29.9761 22.2576ZM29.1082 20.5286C29.5333 21.0182 29.8227 21.5933 29.9761 22.2576L30.3659 22.1676C30.1985 21.4425 29.8801 20.8076 29.4103 20.2664L29.1082 20.5286ZM27.3408 19.3749C28.1016 19.6572 28.6872 20.0436 29.1082 20.5286L29.4103 20.2664C28.9364 19.7205 28.2895 19.3002 27.48 18.9999L27.3408 19.3749ZM24.3839 18.9504C25.6029 18.9504 26.5859 19.0948 27.3408 19.3749L27.48 18.9999C26.6647 18.6974 25.63 18.5504 24.3839 18.5504V18.9504ZM21.7687 18.9504H24.3839V18.5504H21.7687V18.9504ZM21.4687 19.2504C21.4687 19.0847 21.6031 18.9504 21.7687 18.9504V18.5504C21.3821 18.5504 21.0687 18.8638 21.0687 19.2504H21.4687ZM21.4687 29.679V19.2504H21.0687V29.679H21.4687Z" fill="#FEDB41"/>
<rect x="18.9829" y="23.3218" width="4.57143" height="2.28571" rx="0.75" fill="#FEDB41" stroke="#FEDB41" stroke-width="0.4"/>
<path d="M16.697 17.2147C16.697 16.8005 17.0328 16.4647 17.447 16.4647H21.2684V18.7504H17.447C17.0328 18.7504 16.697 18.4146 16.697 18.0004V17.2147Z" fill="#FEDB41" stroke="#FEDB41" stroke-width="0.4"/>
<path d="M16.697 30.929C16.697 30.5147 17.0328 30.179 17.447 30.179H21.2684V32.4647H17.447C17.0328 32.4647 16.697 32.1289 16.697 31.7147V30.929Z" fill="#FEDB41" stroke="#FEDB41" stroke-width="0.4"/>
<defs>
<filter id="filter0_f" x="0.77057" y="32.0812" width="50.5954" height="21.7954" filterUnits="userSpaceOnUse" color-interpolation-filters="sRGB">
<feFlood flood-opacity="0" result="BackgroundImageFix"/>
<feBlend mode="normal" in="SourceGraphic" in2="BackgroundImageFix" result="shape"/>
<feGaussianBlur stdDeviation="4.07742" result="effect1_foregroundBlur"/>
</filter>
</defs>
</svg>