<svg width="42" height="42" viewBox="9 8 24 24" fill="none" xmlns="http://www.w3.org/2000/svg">
<path d="M23.5928 18.4057C23.3678 18.1793 23.1182 17.9787 22.8488 17.8073C22.1353 17.3504 21.3057 17.1076 20.4584 17.1076C19.2824 17.1054 18.1541 17.5727 17.324 18.4057L13.2967 22.4362C12.468 23.2665 12.0022 24.3915 12.0014 25.5646C11.9999 28.0126 13.9831 29.9984 16.4311 30C17.6054 30.0041 18.7326 29.539 19.5624 28.7082L22.8868 25.3838C22.9472 25.3239 22.9809 25.2422 22.9805 25.1572C22.9795 24.9823 22.8369 24.8414 22.662 24.8424H22.5354C21.8408 24.8448 21.1524 24.7115 20.5091 24.4498C20.3905 24.401 20.2543 24.4286 20.164 24.5195L17.7736 26.913C17.0313 27.6553 15.8278 27.6553 15.0856 26.913C14.3433 26.1707 14.3433 24.9673 15.0856 24.225L19.1287 20.1851C19.8704 19.4443 21.0719 19.4443 21.8135 20.1851C22.3134 20.6555 23.0931 20.6555 23.5929 20.1851C23.8079 19.9698 23.9383 19.6844 23.9602 19.3809C23.9833 19.0182 23.8495 18.663 23.5928 18.4057Z" fill="#8B8B8B"/>
<path d="M29.7002 12.2983C27.9691 10.5672 25.1624 10.5672 23.4313 12.2983L20.1101 15.6164C20.0189 15.708 19.9926 15.8459 20.0436 15.9647C20.094 16.0838 20.2119 16.1603 20.3412 16.1578H20.4583C21.1521 16.1565 21.8393 16.291 22.4815 16.5536C22.6 16.6024 22.7363 16.5748 22.8266 16.4839L25.2106 14.103C25.9529 13.3607 27.1564 13.3607 27.8987 14.103C28.6409 14.8453 28.6409 16.0488 27.8987 16.791L24.9288 19.7577L24.9035 19.7862L23.865 20.8183C23.1233 21.5591 21.9219 21.5591 21.1802 20.8183C20.6803 20.3479 19.9006 20.3479 19.4008 20.8183C19.1844 21.0352 19.0539 21.3231 19.0336 21.6288C19.0104 21.9915 19.1442 22.3467 19.4008 22.604C19.7673 22.972 20.1961 23.2721 20.6673 23.4905C20.7337 23.5221 20.8002 23.5475 20.8667 23.576C20.9332 23.6045 21.0029 23.6266 21.0693 23.652C21.1358 23.6773 21.2055 23.6994 21.272 23.7184L21.4588 23.7691C21.5854 23.8007 21.7121 23.8261 21.8419 23.8482C21.9982 23.8715 22.1557 23.8863 22.3136 23.8926H22.5352H22.5542L22.7442 23.8704C22.8138 23.8673 22.8867 23.8514 22.969 23.8514H23.0766L23.2951 23.8198L23.3964 23.8008L23.58 23.7628H23.6149C24.3926 23.5674 25.1027 23.1648 25.6697 22.5976L29.7001 18.5672C31.4313 16.8361 31.4313 14.0294 29.7002 12.2983Z" fill="#8B8B8B"/>
</svg>
