<svg width="28" height="28" viewBox="0 0 28 28" fill="none" xmlns="http://www.w3.org/2000/svg">
<path fill-rule="evenodd" clip-rule="evenodd" d="M8.45106 7.37502C8.7482 7.07788 9.22995 7.07788 9.52709 7.37502L20.5026 18.3506C20.7998 18.6477 20.7998 19.1294 20.5026 19.4266C20.2055 19.7237 19.7237 19.7237 19.4266 19.4266L8.45106 8.45105C8.15392 8.15392 8.15392 7.67216 8.45106 7.37502Z" fill="#828282"/>
<path fill-rule="evenodd" clip-rule="evenodd" d="M20.1576 7.37502C19.8605 7.07788 19.3788 7.07788 19.0816 7.37502L8.10609 18.3506C7.80895 18.6477 7.80895 19.1294 8.10609 19.4266C8.40322 19.7237 8.88498 19.7237 9.18212 19.4266L20.1576 8.45105C20.4548 8.15392 20.4548 7.67216 20.1576 7.37502Z" fill="#828282"/>
</svg>
