<svg width="74" height="74" viewBox="0 0 74 74" fill="none" xmlns="http://www.w3.org/2000/svg">
<g filter="url(#filter0_dz)">
<circle cx="37" cy="37" r="27" />
</g>
<path d="M31.0983 29.4628H31.1597C31.7709 29.4628 32.2663 28.9634 32.2663 28.3471V27.9752V26.1157C32.2663 25.4994 31.7709 25 31.1597 25H31.0983C30.4872 25 29.9918 25.4994 29.9918 26.1157V27.9752V28.3471C29.9918 28.9634 30.4872 29.4628 31.0983 29.4628Z" fill="#FF5E6D"/>
<path d="M42.5328 29.4628H42.5942C43.2055 29.4628 43.7008 28.9634 43.7008 28.3471V27.9752V26.1157C43.7008 25.4994 43.2054 25 42.5942 25H42.5328C41.9216 25 41.4262 25.4994 41.4262 26.1157V27.9752V28.3471C41.4262 28.9634 41.9216 29.4628 42.5328 29.4628Z" fill="#FF5E6D"/>
<path fill-rule="evenodd" clip-rule="evenodd" d="M45.8525 27.7769H44.6106V28.3471C44.6106 29.4681 43.7059 30.3802 42.5942 30.3802H42.5328C41.421 30.3802 40.5164 29.4681 40.5164 28.3471V27.7769H33.1762V28.3471C33.1762 29.4681 32.2715 30.3802 31.1598 30.3802H31.0984C29.9866 30.3802 29.082 29.4681 29.082 28.3471V27.7769H28.1475C26.4093 27.7769 25 29.1979 25 30.9505V45.8265C25 47.5791 26.4093 49.0001 28.1475 49.0001H45.8525C47.5907 49.0001 49 47.5791 49 45.8265V30.9505C49 29.1979 47.5907 27.7769 45.8525 27.7769ZM45.8525 27.9753H44.8073V28.3471C44.8073 29.5776 43.8145 30.5786 42.5942 30.5786H42.5328C41.664 30.5786 40.9106 30.0713 40.5486 29.335C40.9106 30.0713 41.664 30.5787 42.5328 30.5787H42.5942C43.8146 30.5787 44.8073 29.5777 44.8073 28.3473V27.9754H45.8525C47.0126 27.9754 48.0164 28.6505 48.4986 29.6323C48.0165 28.6505 47.0126 27.9753 45.8525 27.9753ZM25.5176 47.177C25.3124 46.7717 25.1968 46.3128 25.1968 45.8266V30.9506C25.1968 29.3075 26.518 27.9754 28.1476 27.9754H28.8852V27.9753H28.1475C26.518 27.9753 25.1967 29.3074 25.1967 30.9505V45.8265C25.1967 46.3127 25.3124 46.7717 25.5176 47.177ZM29.1171 29.3411C29.4803 30.0741 30.232 30.5787 31.0984 30.5787H31.1598C32.3802 30.5787 33.3729 29.5777 33.3729 28.3473V27.9754H40.3197V27.9753H33.3729V28.3471C33.3729 29.5776 32.3801 30.5786 31.1598 30.5786H31.0984C30.232 30.5786 29.4803 30.0741 29.1171 29.3411ZM47.1311 45.8265C47.1311 46.5377 46.5579 47.1158 45.8525 47.1158H28.1475C27.4428 47.1158 26.8689 46.5377 26.8689 45.8265V34.124H47.1311V45.8265ZM47.3279 45.8265C47.3279 46.6473 46.6665 47.3141 45.8525 47.3141H28.1475C27.5741 47.3141 27.0759 46.9826 26.8318 46.4994C27.0758 46.9827 27.5741 47.3142 28.1476 47.3142H45.8525C46.6666 47.3142 47.3279 46.6474 47.3279 45.8266V33.9258H47.3279V45.8265Z" fill="#FF5E6D"/>
<path d="M31.0983 39.4733C32.1 39.4733 32.912 38.6546 32.912 37.6446C32.912 36.6347 32.1 35.816 31.0983 35.816C30.0967 35.816 29.2847 36.6347 29.2847 37.6446C29.2847 38.6546 30.0967 39.4733 31.0983 39.4733Z" fill="#FF5E6D"/>
<path d="M37.0002 39.4733C38.0018 39.4733 38.8138 38.6546 38.8138 37.6446C38.8138 36.6347 38.0018 35.816 37.0002 35.816C35.9985 35.816 35.1865 36.6347 35.1865 37.6446C35.1865 38.6546 35.9985 39.4733 37.0002 39.4733Z" fill="#FF5E6D"/>
<path d="M42.9018 39.4733C43.9034 39.4733 44.7154 38.6546 44.7154 37.6446C44.7154 36.6347 43.9034 35.816 42.9018 35.816C41.9001 35.816 41.0881 36.6347 41.0881 37.6446C41.0881 38.6546 41.9001 39.4733 42.9018 39.4733Z" fill="#FF5E6D"/>
<path d="M31.0983 45.4236C32.1 45.4236 32.912 44.6049 32.912 43.595C32.912 42.5851 32.1 41.7664 31.0983 41.7664C30.0967 41.7664 29.2847 42.5851 29.2847 43.595C29.2847 44.6049 30.0967 45.4236 31.0983 45.4236Z" fill="#FF5E6D"/>
<path d="M37.0002 45.4236C38.0018 45.4236 38.8138 44.6049 38.8138 43.595C38.8138 42.5851 38.0018 41.7664 37.0002 41.7664C35.9985 41.7664 35.1865 42.5851 35.1865 43.595C35.1865 44.6049 35.9985 45.4236 37.0002 45.4236Z" fill="#FF5E6D"/>
<path d="M42.9018 45.4236C43.9034 45.4236 44.7154 44.6049 44.7154 43.595C44.7154 42.5851 43.9034 41.7664 42.9018 41.7664C41.9001 41.7664 41.0881 42.5851 41.0881 43.595C41.0881 44.6049 41.9001 45.4236 42.9018 45.4236Z" fill="#FF5E6D"/>
<defs>
<filter id="filter0_dz" x="0" y="0" width="74" height="74" filterUnits="userSpaceOnUse" color-interpolation-filters="sRGB">
<feFlood flood-opacity="0" result="BackgroundImageFix"/>
<feColorMatrix in="SourceAlpha" type="matrix" values="0 0 0 0 0 0 0 0 0 0 0 0 0 0 0 0 0 0 127 0"/>
<feOffset/>
<feGaussianBlur stdDeviation="5"/>
<feColorMatrix type="matrix" values="0 0 0 0 0 0 0 0 0 0 0 0 0 0 0 0 0 0 0.15 0"/>
<feBlend mode="normal" in2="BackgroundImageFix" result="effect1_dropShadow"/>
<feBlend mode="normal" in="SourceGraphic" in2="effect1_dropShadow" result="shape"/>
</filter>
</defs>
</svg>
