<svg width="18" height="16" viewBox="0 0 18 16" fill="none" xmlns="http://www.w3.org/2000/svg">
<g clip-path="url(#clip0)">
<path d="M15.7501 16H2.25022C1.00974 16 0.000244141 15.1028 0.000244141 14V4.66685C0.000244141 3.5642 1.00974 2.66687 2.25022 2.66687H4.50019C4.91492 2.66687 5.25014 2.96484 5.25014 3.33349C5.25014 3.70214 4.91492 4.00011 4.50019 4.00011H2.25022C1.83618 4.00011 1.50014 4.29881 1.50014 4.66685V14C1.50014 14.368 1.83618 14.6667 2.25022 14.6667H15.7501C16.164 14.6667 16.5 14.368 16.5 14V8.6668C16.5 8.29815 16.8352 8.00006 17.25 8.00006C17.6648 8.00006 18 8.29815 18 8.6668V14C18 15.1028 16.9905 16 15.7501 16Z" fill="#C4C4C4"/>
<path class="path2" d="M7.5 9V7C7.5 5.34315 8.84315 4 10.5 4H17M17 4L15 6M17 4L15 2" stroke="#C4C4C4" stroke-width="1.5" stroke-linecap="round" stroke-linejoin="round"/>
</g>
<defs>
<clipPath id="clip0">
<rect width="18" height="16" fill="white"/>
</clipPath>
</defs>
</svg>
