<?xml version="1.0" encoding="utf-8"?><svg xml:space="preserve" viewBox="0 0 100 100" y="0px" x="0px" xmlns:xlink="http://www.w3.org/1999/xlink" xmlns="http://www.w3.org/2000/svg" id="圖層_1" version="1.1" width="80px" height="80px" style="width:100%;height:100%;background-size:initial;background-repeat-y:initial;background-repeat-x:initial;background-position-y:initial;background-position-x:initial;background-origin:initial;background-image:initial;background-color:transparent;background-clip:initial;background-attachment:initial;animation-play-state:paused" ><g class="ldl-scale" style="transform-origin:50% 50%;transform:rotate(0deg) scale(0.8, 0.8);animation-play-state:paused" ><g style="animation-play-state:paused" ><line y2="78.7" x2="18.2" y1="69.5" x1="18.2" stroke-miterlimit="10" stroke-linejoin="round" stroke-linecap="round" stroke-width="3" stroke="#000000" fill="none" style="stroke:rgb(140, 21, 36);animation-play-state:paused" ></line>
<line y2="78.7" x2="81.8" y1="69.5" x1="81.8" stroke-miterlimit="10" stroke-linejoin="round" stroke-linecap="round" stroke-width="3" stroke="#000000" fill="none" style="stroke:rgb(140, 21, 36);animation-play-state:paused" ></line></g>
<g style="animation-play-state:paused" ><path d="M77.8,54.7H22.2V25.1c0-2.1,1.7-3.8,3.8-3.8h48c2.1,0,3.8,1.7,3.8,3.8V54.7z" stroke-miterlimit="10" stroke-linejoin="round" stroke-linecap="round" stroke-width="3" stroke="#000000" fill="#F2F2F3" style="stroke:rgb(140, 21, 36);fill:rgb(255, 136, 146);animation-play-state:paused" ></path>
<path d="M77.8,54.7H22.2v-6.6c0-2,1.6-3.6,3.6-3.6h48.4c2,0,3.6,1.6,3.6,3.6V54.7z" stroke-miterlimit="10" stroke-linejoin="round" stroke-linecap="round" stroke-width="3" stroke="#000000" fill="#D2D2D3" style="stroke:rgb(140, 21, 36);fill:rgb(255, 81, 81);animation-play-state:paused" ></path>
<path d="M90,54.7H77.8V36.5c0-1.9,1.5-3.4,3.4-3.4h5.3c1.9,0,3.4,1.5,3.4,3.4V54.7z" stroke-miterlimit="10" stroke-linejoin="round" stroke-linecap="round" stroke-width="3" stroke="#000000" fill="#D2D2D3" style="stroke:rgb(140, 21, 36);fill:rgb(255, 81, 81);animation-play-state:paused" ></path>
<path d="M10,54.7h12.2V36.5c0-1.9-1.5-3.4-3.4-3.4h-5.3c-1.9,0-3.4,1.5-3.4,3.4V54.7z" stroke-miterlimit="10" stroke-linejoin="round" stroke-linecap="round" stroke-width="3" stroke="#000000" fill="#D2D2D3" style="stroke:rgb(140, 21, 36);fill:rgb(255, 81, 81);animation-play-state:paused" ></path></g>
<rect height="14.8" width="80" stroke-miterlimit="10" stroke-linejoin="round" stroke-linecap="round" stroke-width="3" stroke="#000000" fill="#B2B3B4" y="54.7" x="10" style="stroke:rgb(140, 21, 36);fill:rgb(255, 105, 105);animation-play-state:paused" ></rect>
<metadata xmlns:d="https://loading.io/stock/" style="animation-play-state:paused" ><d:name style="animation-play-state:paused" >lounge</d:name>


<d:tags style="animation-play-state:paused" >chair,couch,sofa,living room,settee,bench</d:tags>


<d:license style="animation-play-state:paused" >by</d:license>


<d:slug style="animation-play-state:paused" >4ysc8g</d:slug></metadata></g><!-- generated by https://loading.io/ --></svg>