<svg width="667" height="788" viewBox="0 0 667 788" fill="none" xmlns="http://www.w3.org/2000/svg">
<rect width="667" height="788" rx="5" fill="white"/>
<mask id="mask0" mask-type="alpha" maskUnits="userSpaceOnUse" x="1" y="0" width="666" height="788">
<rect x="1" width="666" height="788" fill="white"/>
</mask>
<g mask="url(#mask0)">
<path opacity="0.7" d="M203.675 487.681C222.553 558.133 180.744 630.55 110.291 649.428C39.8384 668.305 -34.5172 594.811 -53.395 524.359C-72.2727 453.906 48.2042 354.715 118.657 335.838C189.109 316.96 184.798 417.228 203.675 487.681Z" fill="#FFF2F3"/>
<path opacity="0.7" d="M660.558 313.244C660.558 383.992 553.897 402.444 483.148 402.444C412.4 402.444 410.302 299.747 410.302 228.999C410.302 158.251 467.655 144.011 538.403 144.011C609.151 144.011 660.558 242.495 660.558 313.244Z" fill="#FFF2F3"/>
<path opacity="0.7" d="M690 759.571C690 800.362 583.448 811 512.772 811C442.096 811 440 751.79 440 711C440 670.21 497.294 662 567.97 662C638.646 662 690 718.781 690 759.571Z" fill="#FFF2F3"/>
<path opacity="0.7" d="M176.895 63.7312C176.895 111.079 138.512 123.446 91.1638 123.446C43.8158 123.446 5.43262 111.079 5.43262 63.7312C5.43262 16.3832 43.8158 -22 91.1638 -22C138.512 -22 176.895 16.3832 176.895 63.7312Z" fill="#FFF2F3"/>
</g>
<path opacity="0.7" d="M207.03 165.16C207.03 174.736 213.815 189.65 207.03 193.567C197.194 199.246 184.001 193.425 178.322 183.589C172.643 173.752 176.013 161.175 185.85 155.496C195.686 149.817 207.03 155.584 207.03 165.16Z" fill="#FFF2F3"/>
</svg>
