<svg width="18" height="16" viewBox="0 0 18 16" fill="none" xmlns="http://www.w3.org/2000/svg">
<g clip-path="url(#clip0)">
<path d="M17.8425 4.6529L12.9675 0.152948C12.8085 0.00634295 12.5647 -0.0396771 12.3526 0.0362498C12.1396 0.112909 12.0001 0.296257 12.0001 0.500234V2.66696H11.8126C7.78067 2.66696 4.50018 5.58294 4.50018 9.16688V10.1669C4.50018 10.3988 4.68393 10.5922 4.93812 10.6449C4.97946 10.6542 5.02065 10.6582 5.06185 10.6582C5.27416 10.6582 5.47741 10.5475 5.5756 10.3735C6.63013 8.49819 8.75034 7.33353 11.1091 7.33353H12.0001V9.50013C12.0001 9.70423 12.1396 9.88758 12.3526 9.96351C12.5634 10.0402 12.8085 9.99354 12.9675 9.84681L17.8425 5.34686C18.0525 5.15289 18.0525 4.8476 17.8425 4.6529Z" fill="#C4C4C4"/>
<path d="M15.7501 16H2.25022C1.00974 16 0.000244141 15.1028 0.000244141 14V4.66685C0.000244141 3.5642 1.00974 2.66687 2.25022 2.66687H4.50019C4.91492 2.66687 5.25014 2.96484 5.25014 3.33349C5.25014 3.70214 4.91492 4.00011 4.50019 4.00011H2.25022C1.83618 4.00011 1.50014 4.29881 1.50014 4.66685V14C1.50014 14.368 1.83618 14.6667 2.25022 14.6667H15.7501C16.164 14.6667 16.5 14.368 16.5 14V8.6668C16.5 8.29815 16.8352 8.00006 17.25 8.00006C17.6648 8.00006 18 8.29815 18 8.6668V14C18 15.1028 16.9905 16 15.7501 16Z" fill="#C4C4C4"/>
</g>
<defs>
<clipPath id="clip0">
<rect width="18" height="16" fill="white"/>
</clipPath>
</defs>
</svg>
