<svg width="34" height="34" viewBox="0 0 34 34" fill="none" xmlns="http://www.w3.org/2000/svg">
<path d="M2 1H23C28.5228 1 33 5.47715 33 11V30H5C3.34315 30 2 28.6569 2 27V1Z" fill="#FF5E6D"/>
<g clip-path="url(#clip0)">
<path d="M24.7394 16.053L17.9432 9.25682C17.6674 8.98482 17.2896 8.81482 16.8741 8.81482H11.5852C10.7503 8.81482 10.0741 9.49103 10.0741 10.3259V15.6148C10.0741 16.0341 10.2441 16.4119 10.5199 16.6839L17.3199 23.4839C17.5919 23.7559 17.9696 23.9259 18.3852 23.9259C18.8007 23.9259 19.1823 23.7559 19.4543 23.4839L24.7432 18.1951C25.0152 17.9193 25.1852 17.5415 25.1852 17.1259C25.1852 16.7066 25.0152 16.3288 24.7394 16.053ZM12.7185 12.5926C12.0914 12.5926 11.5852 12.0864 11.5852 11.4593C11.5852 10.8322 12.0914 10.3259 12.7185 10.3259C13.3456 10.3259 13.8519 10.8322 13.8519 11.4593C13.8519 12.0864 13.3456 12.5926 12.7185 12.5926Z" fill="white"/>
</g>
<defs>
<clipPath id="clip0">
<rect x="10.0741" y="8.81482" width="15.1111" height="15.1111" fill="white"/>
</clipPath>
</defs>
</svg>
