<svg width="19" height="19" viewBox="0 0 28 28" fill="none" xmlns="http://www.w3.org/2000/svg">
<path d="M14.0547 0C6.36027 0 0 6.25078 0 13.9453C0 21.6398 6.36027 28 14.0547 28C21.7491 28 28 21.6398 28 13.9453C28 6.25078 21.7491 0 14.0547 0Z" fill="#FEDB41"/>
<path d="M14.0572 2.80005C7.91993 2.80005 2.80005 7.80571 2.80005 13.9429C2.80005 20.0801 7.91993 25.2 14.0572 25.2C20.1944 25.2 25.2 20.0801 25.2 13.9429C25.2 7.80571 20.1944 2.80005 14.0572 2.80005Z" fill="#FEA832"/>
<path fill-rule="evenodd" clip-rule="evenodd" d="M11 8.40002C10.4477 8.40002 10 8.84774 10 9.40002V18.6C10 19.1523 10.4477 19.6 11 19.6H14.6507C15.5097 19.6 16.2534 19.4536 16.8818 19.1608C17.5103 18.868 18.0236 18.468 18.4216 17.9608C18.8196 17.4536 19.1155 16.8602 19.3093 16.1804C19.5031 15.5007 19.6 14.7739 19.6 14C19.6 13.2262 19.5031 12.4994 19.3093 11.8196C19.1155 11.1399 18.8196 10.5464 18.4216 10.0392C18.0236 9.53205 17.5103 9.13205 16.8818 8.83924C16.2534 8.54643 15.5097 8.40002 14.6507 8.40002H11ZM11.5999 17.4999C11.5999 17.7761 11.8238 17.9999 12.0999 17.9999H13.7805C14.6433 17.9999 15.3495 17.898 15.8991 17.6941C16.4487 17.4901 16.88 17.2078 17.1933 16.847C17.5065 16.4862 17.7192 16.0627 17.8315 15.5764C17.9438 15.0901 17.9999 14.5647 17.9999 13.9999C17.9999 13.4352 17.9438 12.9098 17.8315 12.4235C17.7192 11.9372 17.5065 11.5137 17.1933 11.1529C16.88 10.7921 16.4487 10.5098 15.8991 10.3058C15.3495 10.1019 14.6433 9.99995 13.7805 9.99995H12.0999C11.8238 9.99995 11.5999 10.2238 11.5999 10.4999V17.4999Z" fill="#FEDB41"/>
<path d="M16.8818 19.1608L16.9663 19.3421L16.9663 19.3421L16.8818 19.1608ZM18.4216 17.9608L18.5789 18.0843L18.5789 18.0843L18.4216 17.9608ZM19.3093 16.1804L19.117 16.1256L19.117 16.1256L19.3093 16.1804ZM19.3093 11.8196L19.5017 11.7648L19.5017 11.7648L19.3093 11.8196ZM18.4216 10.0392L18.5789 9.91577L18.5789 9.91577L18.4216 10.0392ZM16.8818 8.83924L16.9663 8.65795L16.9663 8.65795L16.8818 8.83924ZM17.1933 16.847L17.0422 16.7159L17.0422 16.7159L17.1933 16.847ZM17.8315 15.5764L18.0264 15.6214L18.0264 15.6214L17.8315 15.5764ZM17.8315 12.4235L17.6366 12.4685L17.6366 12.4685L17.8315 12.4235ZM17.1933 11.1529L17.0422 11.284L17.0422 11.284L17.1933 11.1529ZM10.2 9.40002C10.2 8.9582 10.5582 8.60002 11 8.60002V8.20002C10.3373 8.20002 9.8 8.73728 9.8 9.40002H10.2ZM10.2 18.6V9.40002H9.8V18.6H10.2ZM11 19.4C10.5582 19.4 10.2 19.0419 10.2 18.6H9.8C9.8 19.2628 10.3373 19.8 11 19.8V19.4ZM14.6507 19.4H11V19.8H14.6507V19.4ZM16.7974 18.9795C16.2009 19.2574 15.4873 19.4 14.6507 19.4V19.8C15.532 19.8 16.3058 19.6498 16.9663 19.3421L16.7974 18.9795ZM18.2643 17.8373C17.8871 18.318 17.3996 18.699 16.7974 18.9795L16.9663 19.3421C17.6211 19.037 18.16 18.618 18.5789 18.0843L18.2643 17.8373ZM19.117 16.1256C18.9296 16.7828 18.6448 17.3524 18.2643 17.8373L18.5789 18.0843C18.9945 17.5548 19.3015 16.9375 19.5017 16.2352L19.117 16.1256ZM19.4 14C19.4 14.7571 19.3052 15.4653 19.117 16.1256L19.5017 16.2352C19.701 15.5361 19.8 14.7907 19.8 14H19.4ZM19.117 11.8745C19.3052 12.5348 19.4 13.243 19.4 14H19.8C19.8 13.2094 19.701 12.464 19.5017 11.7648L19.117 11.8745ZM18.2643 10.1627C18.6448 10.6476 18.9296 11.2172 19.117 11.8745L19.5017 11.7648C19.3015 11.0625 18.9945 10.4452 18.5789 9.91577L18.2643 10.1627ZM16.7974 9.02053C17.3996 9.30109 17.8871 9.68209 18.2643 10.1627L18.5789 9.91577C18.16 9.382 17.6211 8.96302 16.9663 8.65795L16.7974 9.02053ZM14.6507 8.60002C15.4873 8.60002 16.2009 8.74262 16.7974 9.02053L16.9663 8.65795C16.3058 8.35023 15.532 8.20002 14.6507 8.20002V8.60002ZM11 8.60002H14.6507V8.20002H11V8.60002ZM12.0999 17.7999C11.9342 17.7999 11.7999 17.6656 11.7999 17.4999H11.3999C11.3999 17.8865 11.7133 18.1999 12.0999 18.1999V17.7999ZM13.7805 17.7999H12.0999V18.1999H13.7805V17.7999ZM15.8295 17.5066C15.31 17.6993 14.6297 17.7999 13.7805 17.7999V18.1999C14.6569 18.1999 15.3889 18.0967 15.9686 17.8816L15.8295 17.5066ZM17.0422 16.7159C16.7555 17.0462 16.3547 17.3117 15.8295 17.5066L15.9686 17.8816C16.5426 17.6686 17.0046 17.3694 17.3443 16.9781L17.0422 16.7159ZM17.6366 15.5314C17.5313 15.9873 17.333 16.3809 17.0422 16.7159L17.3443 16.9781C17.6799 16.5915 17.9071 16.1381 18.0264 15.6214L17.6366 15.5314ZM17.7999 13.9999C17.7999 14.5515 17.7451 15.0617 17.6366 15.5314L18.0264 15.6214C18.1425 15.1186 18.1999 14.5779 18.1999 13.9999H17.7999ZM17.6366 12.4685C17.7451 12.9382 17.7999 13.4484 17.7999 13.9999H18.1999C18.1999 13.422 18.1425 12.8813 18.0264 12.3785L17.6366 12.4685ZM17.0422 11.284C17.333 11.619 17.5313 12.0126 17.6366 12.4685L18.0264 12.3785C17.9071 11.8618 17.6799 11.4084 17.3443 11.0218L17.0422 11.284ZM15.8295 10.4933C16.3547 10.6882 16.7555 10.9537 17.0422 11.284L17.3443 11.0218C17.0046 10.6305 16.5426 10.3313 15.9686 10.1183L15.8295 10.4933ZM13.7805 10.1999C14.6297 10.1999 15.31 10.3006 15.8295 10.4933L15.9686 10.1183C15.3889 9.90322 14.6569 9.79995 13.7805 9.79995V10.1999ZM12.0999 10.1999H13.7805V9.79995H12.0999V10.1999ZM11.7999 10.4999C11.7999 10.3343 11.9342 10.1999 12.0999 10.1999V9.79995C11.7133 9.79995 11.3999 10.1133 11.3999 10.4999H11.7999ZM11.7999 17.4999V10.4999H11.3999V17.4999H11.7999Z" fill="#FEDB41"/>
<rect x="10" y="13.2" width="3.2" height="1.6" rx="0.75" fill="#FEDB41" stroke="#FEDB41" stroke-width="0.4"/>
<path d="M8.40002 9.15003C8.40002 8.73581 8.73581 8.40002 9.15002 8.40002H11.6V10H9.15003C8.73581 10 8.40002 9.66424 8.40002 9.25002V9.15003Z" fill="#FEDB41" stroke="#FEDB41" stroke-width="0.4"/>
<path d="M8.40002 18.75C8.40002 18.3358 8.73581 18 9.15002 18H11.6V19.6H9.15003C8.73581 19.6 8.40002 19.2642 8.40002 18.85V18.75Z" fill="#FEDB41" stroke="#FEDB41" stroke-width="0.4"/>
</svg>
